<svg xmlns="http://www.w3.org/2000/svg" version="1.1" xmlns:xlink="http://www.w3.org/1999/xlink" xmlns:svgjs="http://svgjs.dev/svgjs" width="2000" height="1500" viewBox="0 0 2000 1500"><rect width="2000" height="1500" fill="#ede1d1"></rect><g transform="matrix(0.36496350364963503,0,0,0.36496350364963503,633.2235457377019,248.38709677419354)"><svg viewBox="0 0 181 248" data-background-color="#ede1d1" preserveAspectRatio="xMidYMid meet" height="2740" width="2000" xmlns="http://www.w3.org/2000/svg" xmlns:xlink="http://www.w3.org/1999/xlink"><g id="tight-bounds" transform="matrix(1,0,0,1,0.4495573634220591,0.4000000000000057)"><svg viewBox="0 0 180.10088527315588 247.2" height="247.2" width="180.10088527315588"><g><svg viewBox="0 0 397.4976 545.5909146197067" height="247.2" width="180.10088527315588"><g><rect width="397.4976" height="14.446576945072943" x="0" y="281.7570695440422" fill="#6a704c" opacity="1" stroke-width="0" stroke="transparent" fill-opacity="1" class="rect-yte-0" data-fill-palette-color="secondary" rx="1%" id="yte-0" data-palette-color="#6a704c"></rect></g><g transform="matrix(1,0,0,1,0.9887999999999693,334.0219107432328)"><svg viewBox="0 0 395.52000000000004 211.56900387647386" height="211.56900387647386" width="395.52000000000004"><g id="textblocktransform"><svg viewBox="0 0 395.52000000000004 211.56900387647386" height="211.56900387647386" width="395.52000000000004" id="textblock"><g><svg viewBox="0 0 395.52000000000004 160.19529411764708" height="160.19529411764708" width="395.52000000000004"><g transform="matrix(1,0,0,1,0,0)"><svg width="395.52000000000004" viewBox="2 -32.45 81.59 33.050000000000004" height="160.19529411764708" data-palette-color="#6a704c"><path d="M16.95 0.6Q12.45 0.6 9.05-1.3 5.65-3.2 3.83-6.68 2-10.15 2-14.85L2-14.85Q2-19.85 4.25-23.88 6.5-27.9 10.48-30.18 14.45-32.45 19.45-32.45L19.45-32.45Q21.3-32.45 23.23-32.18 25.15-31.9 26.48-31.63 27.8-31.35 28.15-31.25L28.15-31.25 28.35-30.95Q28.25-30.65 28.03-29.5 27.8-28.35 27.53-26.5 27.25-24.65 27.1-22.6L27.1-22.6 24.7-22.4Q24.75-22.65 24.8-23.33 24.85-24 24.85-24.85L24.85-24.85Q24.85-29.5 17.5-29.5L17.5-29.5Q14.2-29.5 11.7-27.9 9.2-26.3 7.85-23.38 6.5-20.45 6.5-16.5L6.5-16.5Q6.5-12.15 7.93-8.85 9.35-5.55 11.95-3.73 14.55-1.9 17.95-1.9L17.95-1.9Q21.35-1.9 23.43-3.83 25.5-5.75 26.45-9.8L26.45-9.8 28.85-10Q28.7-9.25 28.2-6.68 27.7-4.1 27.5-1.85L27.5-1.85 27.2-1.4Q27.2-1.35 25.68-0.83 24.15-0.3 21.88 0.15 19.6 0.6 16.95 0.6L16.95 0.6ZM37.55 0.2L37.95-1.95Q40.45-2.15 41.4-2.58 42.35-3 42.65-4.13 42.95-5.25 42.95-8.1L42.95-8.1 42.95-29.9Q38.7-29.75 37.17-29.43 35.65-29.1 35.1-27.98 34.55-26.85 34.1-23.6L34.1-23.6 31.75-23.4Q32.35-28.15 32.5-32.05L32.5-32.05 32.95-32.45 37.1-31.9 52.6-31.9 56.85-32.45 57.3-32.05Q57.45-27.95 58.05-23.6L58.05-23.6 55.7-23.4Q55.15-26.7 54.6-27.85 54.05-29 52.65-29.35 51.25-29.7 47.25-29.9L47.25-29.9Q46.95-26.9 46.7-19.3 46.45-11.7 46.45-5.6L46.45-5.6Q46.45-3.75 47.1-2.98 47.75-2.2 49.3-2.2L49.3-2.2Q50.8-2.2 52.05-2.35L52.05-2.35 52.2-2.15 51.75 0.15 50.1 0.1 44.4 0Q41.65 0 37.55 0.2L37.55 0.2ZM61.49 0.6L61.8-1.7Q64.09-2.15 64.89-3.03 65.69-3.9 65.69-6L65.69-6 65.75-27Q65.75-28.6 65.37-29.15 65-29.7 63.89-29.7L63.89-29.7Q63.39-29.7 62.89-29.65 62.39-29.6 62.2-29.6L62.2-29.6 62.09-29.8 62.45-32Q63.09-31.95 65.07-31.9 67.05-31.85 69.39-31.85L69.39-31.85Q79.25-31.85 83.44-32.45L83.44-32.45 83.59-32.15Q83.55-31.85 83.32-30.75 83.09-29.65 82.84-27.7 82.59-25.75 82.44-23.7L82.44-23.7 80.05-23.5Q80.05-23.75 80.09-24.45 80.14-25.15 80.14-25.8L80.14-25.8Q80.14-27.55 79.72-28.23 79.3-28.9 78-29.13 76.69-29.35 73.44-29.35L73.44-29.35Q71.69-29.35 71.05-29.25 70.39-29.15 70.19-28.78 70-28.4 69.94-27.4L69.94-27.4 69.55-16.85 74.69-16.8Q75.64-16.8 77.5-17.03 79.34-17.25 79.94-17.35L79.94-17.35 80.14-17.1 79.44-14.1Q78.8-14.15 77.02-14.2 75.25-14.25 73.3-14.25L73.3-14.25Q71.44-14.25 69.44-13.9L69.44-13.9 69.25-5.6Q69.25-3.55 69.69-2.88 70.14-2.2 71.44-2.2L71.44-2.2Q72.44-2.2 73.52-2.27 74.59-2.35 75-2.35L75-2.35 75.09-2.15 74.64 0.2Q73.84 0.15 71.67 0.08 69.5 0 67.19 0L67.19 0Q65.64 0 63.84 0.25 62.05 0.5 61.49 0.6L61.49 0.6Z" opacity="1" transform="matrix(1,0,0,1,0,0)" fill="#6a704c" class="wordmark-text-0" data-fill-palette-color="primary" id="text-0"></path></svg></g></svg></g><g transform="matrix(1,0,0,1,75.54432,198.01355837176473)"><svg viewBox="0 0 244.43136000000004 13.555445504709143" height="13.555445504709143" width="244.43136000000004"><g transform="matrix(1,0,0,1,0,0)"><svg width="244.43136000000004" viewBox="4.4 -37.9 902.4 50.05" height="13.555445504709143" data-palette-color="#6a704c"><path d="M4.4 0L4.4-34.1 25.3-34.1 25.3-30.25 8.6-30.25 8.6-19.35 24.1-19.35 24.1-15.6 8.6-15.6 8.6 0 4.4 0ZM30.65 0L30.65-37.45 34.65-37.9 34.65 0 30.65 0ZM55.85-5.85L55.85-11.55Q54.85-11.5 53.95-11.45 53.05-11.4 52.17-11.33 51.3-11.25 50.6-11.15L50.6-11.15Q47-10.7 45.5-9.58 44-8.45 44-6.35L44-6.35Q44-4.6 45.07-3.73 46.15-2.85 47.9-2.85L47.9-2.85Q50.3-2.85 52.17-3.68 54.05-4.5 55.85-5.85L55.85-5.85ZM56.3 0.4L55.8-2.35Q53.45-1 51.42-0.18 49.4 0.65 47.05 0.65L47.05 0.65Q43.7 0.65 41.72-0.98 39.75-2.6 39.75-6.35L39.75-6.35Q39.75-8.3 40.75-9.75 41.75-11.2 43.37-12.18 45-13.15 47.05-13.7 49.1-14.25 51.25-14.4L51.25-14.4Q52.15-14.5 53.6-14.58 55.05-14.65 55.85-14.7L55.85-14.7Q55.85-16.45 55.75-17.82 55.65-19.2 55.15-20.18 54.65-21.15 53.67-21.65 52.7-22.15 50.9-22.15L50.9-22.15Q49.45-22.15 48.1-21.98 46.75-21.8 45.7-21.6L45.7-21.6Q44.45-21.35 43.4-21.05L43.4-21.05 42.6-24.5Q43.85-24.8 45.3-25.05L45.3-25.05Q46.55-25.3 48.2-25.48 49.85-25.65 51.75-25.65L51.75-25.65Q54.3-25.65 55.87-24.9 57.45-24.15 58.32-22.88 59.2-21.6 59.52-19.98 59.85-18.35 59.85-16.55L59.85-16.55 59.85-4.55Q59.85-3.85 59.87-3.08 59.9-2.3 59.97-1.55 60.05-0.8 60.15 0L60.15 0 56.3 0.4ZM86.59-24.55L86.59 2.4Q86.59 4.25 86.19 6 85.79 7.75 84.67 9.13 83.54 10.5 81.52 11.33 79.49 12.15 76.19 12.15L76.19 12.15Q74.09 12.1 72.54 11.9 70.99 11.7 69.59 11.33 68.19 10.95 67.04 10.45L67.04 10.45 68.09 6.95Q70.04 7.8 72.07 8.25 74.09 8.7 75.69 8.7L75.69 8.7Q77.44 8.7 78.74 8.35 80.04 8 80.92 7.18 81.79 6.35 82.22 5 82.64 3.65 82.64 1.65L82.64 1.65 82.64-2Q81.59-1.3 80.47-0.73 79.34-0.15 78.07 0.25 76.79 0.65 75.59 0.65L75.59 0.65Q70.94 0.65 68.24-2.63 65.54-5.9 65.54-12.4L65.54-12.4Q65.54-16.15 66.72-18.68 67.89-21.2 69.69-22.75 71.49-24.3 73.64-24.98 75.79-25.65 77.74-25.65L77.74-25.65Q80.29-25.65 82.42-25.23 84.54-24.8 86.59-24.55L86.59-24.55ZM76.04-2.85L76.04-2.85Q77.14-2.85 78.29-3.25 79.44-3.65 80.52-4.2 81.59-4.75 82.64-5.5L82.64-5.5 82.64-21.45Q82.04-21.6 81.24-21.8L81.24-21.8Q80.54-21.9 79.64-22.03 78.74-22.15 77.74-22.15L77.74-22.15Q75.64-22.15 74.14-21.4 72.64-20.65 71.67-19.35 70.69-18.05 70.24-16.3 69.79-14.55 69.79-12.6L69.79-12.6Q69.79-10.85 70.17-9.1 70.54-7.35 71.34-5.95 72.14-4.55 73.29-3.7 74.44-2.85 76.04-2.85ZM118.69-33L117.79-29.3Q116.54-29.7 115.14-30.03 113.74-30.35 112.07-30.58 110.39-30.8 108.54-30.8L108.54-30.8Q105.54-30.8 103.44-29.5 101.34-28.2 100.02-26.18 98.69-24.15 98.09-21.65 97.49-19.15 97.49-16.7L97.49-16.7Q97.49-13.6 98.37-11.08 99.24-8.55 100.77-6.78 102.29-5 104.32-4.05 106.34-3.1 108.59-3.1L108.59-3.1Q110.69-3.1 112.44-3.33 114.19-3.55 115.44-3.8L115.44-3.8Q116.89-4.1 118.04-4.5L118.04-4.5 118.89-0.95Q117.54-0.5 115.89-0.15L115.89-0.15Q114.49 0.15 112.64 0.4 110.79 0.65 108.59 0.65L108.59 0.65Q104.64 0.65 101.67-0.65 98.69-1.95 96.72-4.28 94.74-6.6 93.74-9.78 92.74-12.95 92.74-16.75L92.74-16.75Q92.74-21.1 93.94-24.43 95.14-27.75 97.24-30 99.34-32.25 102.24-33.4 105.14-34.55 108.59-34.55L108.59-34.55Q110.69-34.55 112.52-34.33 114.34-34.1 115.87-33.75 117.39-33.4 118.69-33L118.69-33ZM125.84-12.45L125.84-12.45Q125.84-7.6 128.01-5.23 130.19-2.85 133.89-2.85L133.89-2.85Q137.54-2.85 139.59-5.2 141.64-7.55 141.64-12.25L141.64-12.25Q141.64-17.25 139.46-19.7 137.29-22.15 133.54-22.15L133.54-22.15Q129.79-22.15 127.81-19.73 125.84-17.3 125.84-12.45ZM121.59-12.5L121.59-12.5Q121.59-16.3 122.79-18.82 123.99-21.35 125.84-22.88 127.69-24.4 129.81-25.03 131.94-25.65 133.84-25.65L133.84-25.65Q135.64-25.65 137.76-25.08 139.89-24.5 141.69-23.03 143.49-21.55 144.69-19.07 145.89-16.6 145.89-12.8L145.89-12.8Q145.89-8.85 144.66-6.25 143.44-3.65 141.59-2.13 139.74-0.6 137.59 0.03 135.44 0.65 133.59 0.65L133.59 0.65Q131.69 0.65 129.59 0.05 127.49-0.55 125.71-2.02 123.94-3.5 122.76-6.05 121.59-8.6 121.59-12.5ZM151.74 0L151.74-20.15Q151.79-21.2 151.49-24.7L151.49-24.7 155.19-25.2 155.74-22Q157.24-23 158.71-23.75 160.19-24.5 161.74-25.08 163.29-25.65 164.74-25.65L164.74-25.65Q166.79-25.65 168.16-25.18 169.54-24.7 170.39-23.6 171.24-22.5 171.61-20.7 171.99-18.9 171.99-16.2L171.99-16.2 171.99 0 167.99 0 167.99-15.75Q167.99-17.25 167.94-18.43 167.89-19.6 167.51-20.43 167.14-21.25 166.36-21.7 165.59-22.15 164.19-22.15L164.19-22.15Q162.89-22.15 161.44-21.58 159.99-21 158.59-20.25 157.19-19.5 155.74-18.5L155.74-18.5 155.74 0 151.74 0ZM194.73 11.45L194.73-2Q193.28-0.95 191.31-0.15 189.33 0.65 187.68 0.65L187.68 0.65Q185.63 0.65 183.81-0.05 181.98-0.75 180.61-2.3 179.23-3.85 178.43-6.33 177.63-8.8 177.63-12.4L177.63-12.4Q177.63-15.8 178.76-18.3 179.88-20.8 181.66-22.43 183.43-24.05 185.61-24.85 187.78-25.65 189.83-25.65L189.83-25.65Q191.73-25.65 192.93-25.43 194.13-25.2 195.03-24.95 195.93-24.7 196.73-24.48 197.53-24.25 198.68-24.25L198.68-24.25 198.68 10.95 194.73 11.45ZM188.13-2.85L188.13-2.85Q189.23-2.85 190.38-3.25 191.53-3.65 192.58-4.2 193.63-4.75 194.73-5.5L194.73-5.5 194.73-21.45Q194.28-21.6 193.63-21.8L193.63-21.8Q193.08-21.9 192.13-22.03 191.18-22.15 189.83-22.15L189.83-22.15Q187.73-22.15 186.23-21.4 184.73-20.65 183.76-19.33 182.78-18 182.33-16.28 181.88-14.55 181.88-12.6L181.88-12.6Q181.88-10.85 182.26-9.1 182.63-7.35 183.43-5.95 184.23-4.55 185.38-3.7 186.53-2.85 188.13-2.85ZM221.23 0.4L220.93-2.75 220.83-2.75Q220.38-2.4 219.53-1.83 218.68-1.25 217.58-0.7 216.48-0.15 215.16 0.25 213.83 0.65 212.48 0.65L212.48 0.65Q210.63 0.65 209.33 0.18 208.03-0.3 207.23-1.4 206.43-2.5 206.08-4.3 205.73-6.1 205.73-8.8L205.73-8.8 205.73-25.15 209.73-25.15 209.73-9.4Q209.73-7.9 209.78-6.7 209.83-5.5 210.13-4.65 210.43-3.8 211.11-3.33 211.78-2.85 213.03-2.85L213.03-2.85Q214.33-2.85 215.73-3.4 217.13-3.95 218.28-4.65L218.28-4.65Q219.63-5.45 220.93-6.45L220.93-6.45 220.93-25.15 224.93-25.15 224.93-3.25Q224.98-1.45 225.18 0L225.18 0 221.23 0.4ZM250.03-3.95L250.78-0.6Q249.63-0.25 248.4 0 247.18 0.25 245.7 0.45 244.23 0.65 242.63 0.65L242.63 0.65Q240.13 0.65 237.98-0.05 235.83-0.75 234.23-2.3 232.63-3.85 231.7-6.33 230.78-8.8 230.78-12.4L230.78-12.4Q230.78-15.65 231.68-18.13 232.58-20.6 234.15-22.28 235.73-23.95 237.85-24.8 239.98-25.65 242.48-25.65L242.48-25.65Q244.93-25.65 246.73-24.7 248.53-23.75 249.7-22.13 250.88-20.5 251.45-18.32 252.03-16.15 252.03-13.75L252.03-13.75 251.28-11.55 235.13-11.55Q235.13-10 235.53-8.45 235.93-6.9 236.9-5.65 237.88-4.4 239.45-3.63 241.03-2.85 243.38-2.85L243.38-2.85Q244.88-2.85 246.13-3.03 247.38-3.2 248.3-3.43 249.23-3.65 250.03-3.95L250.03-3.95ZM235.28-14.75L247.88-14.75Q247.88-15.1 247.73-16.3 247.58-17.5 247.03-18.8 246.48-20.1 245.33-21.13 244.18-22.15 242.28-22.15L242.28-22.15Q240.18-22.15 238.83-21.28 237.48-20.4 236.68-19.2 235.88-18 235.58-16.75 235.28-15.5 235.28-14.75L235.28-14.75ZM271.78-24.6L271.08-21.05Q268.98-21.7 267.35-21.93 265.73-22.15 264.38-22.15L264.38-22.15Q262.63-22.15 261.45-21.3 260.28-20.45 260.28-19.1L260.28-19.1Q260.33-17.9 261.33-17.05 262.33-16.2 263.65-15.53 264.98-14.85 266.6-14.05 268.23-13.25 269.65-12.25 271.08-11.25 271.98-9.85 272.88-8.45 272.93-6.5L272.93-6.5Q272.88-4.4 272-3.03 271.13-1.65 269.75-0.83 268.38 0 266.78 0.33 265.18 0.65 263.78 0.65L263.78 0.65Q261.98 0.65 260.05 0.45 258.13 0.25 255.93-0.4L255.93-0.4 256.68-4Q258.93-3.4 260.78-3.13 262.63-2.85 263.83-2.85L263.83-2.85Q264.73-2.85 265.6-3.05 266.48-3.25 267.18-3.63 267.88-4 268.3-4.6 268.73-5.2 268.73-5.95L268.73-5.95Q268.68-7.35 267.78-8.33 266.88-9.3 265.45-10.08 264.03-10.85 262.4-11.63 260.78-12.4 259.35-13.43 257.93-14.45 256.98-15.88 256.03-17.3 256.03-19.4L256.03-19.4Q256.03-20.9 256.8-22.08 257.58-23.25 258.8-24.03 260.03-24.8 261.5-25.23 262.98-25.65 264.38-25.65L264.38-25.65Q265.83-25.65 267.63-25.43 269.43-25.2 271.78-24.6L271.78-24.6ZM280.17-32.15L284.17-32.65 284.17-25.15 291.42-25.15 291.42-21.9 284.17-21.9 284.17-8.55Q284.17-6.9 284.25-5.8 284.32-4.7 284.57-4.05 284.82-3.4 285.27-3.13 285.72-2.85 286.42-2.85L286.42-2.85Q288.32-2.9 290.82-4.25L290.82-4.25 292.02-1.2Q290.37-0.1 288.95 0.28 287.52 0.65 286.12 0.65L286.12 0.65Q282.82 0.65 281.5-1.23 280.17-3.1 280.17-7.45L280.17-7.45 280.17-21.9 275.57-21.9 275.57-25.15 280.17-25.15 280.17-32.15ZM310.12 0L310.12-21.9 305.47-21.9 305.47-25.15 310.12-25.15Q310.12-28.65 310.59-31.08 311.07-33.5 312.12-35.02 313.17-36.55 314.82-37.23 316.47-37.9 318.82-37.9L318.82-37.9Q320.72-37.9 322.37-37.27 324.02-36.65 325.02-35.75L325.02-35.75 323.27-32.75Q322.27-33.5 321.19-33.95 320.12-34.4 318.87-34.4L318.87-34.4Q317.22-34.4 316.27-33.68 315.32-32.95 314.84-31.7 314.37-30.45 314.24-28.78 314.12-27.1 314.12-25.15L314.12-25.15 320.37-25.15 320.37-21.9 314.12-21.9 314.12 0 310.12 0ZM327.37-12.45L327.37-12.45Q327.37-7.6 329.54-5.23 331.72-2.85 335.42-2.85L335.42-2.85Q339.07-2.85 341.12-5.2 343.17-7.55 343.17-12.25L343.17-12.25Q343.17-17.25 340.99-19.7 338.82-22.15 335.07-22.15L335.07-22.15Q331.32-22.15 329.34-19.73 327.37-17.3 327.37-12.45ZM323.12-12.5L323.12-12.5Q323.12-16.3 324.32-18.82 325.52-21.35 327.37-22.88 329.22-24.4 331.34-25.03 333.47-25.65 335.37-25.65L335.37-25.65Q337.17-25.65 339.29-25.08 341.42-24.5 343.22-23.03 345.02-21.55 346.22-19.07 347.42-16.6 347.42-12.8L347.42-12.8Q347.42-8.85 346.19-6.25 344.97-3.65 343.12-2.13 341.27-0.6 339.12 0.03 336.97 0.65 335.12 0.65L335.12 0.65Q333.22 0.65 331.12 0.05 329.02-0.55 327.24-2.02 325.47-3.5 324.29-6.05 323.12-8.6 323.12-12.5ZM353.26 0L353.26-21.1Q353.26-22.25 353.01-24.7L353.01-24.7 356.71-25.2 357.11-21.55 357.16-21.55Q358.06-22.7 358.91-23.55 359.76-24.4 360.69-25.03 361.61-25.65 362.46-25.65L362.46-25.65Q363.61-25.7 365.66-25.4L365.66-25.4 364.76-21.55Q363.11-21.85 362.46-21.8L362.46-21.8Q361.61-21.8 360.66-21 359.71-20.2 359.01-19.3L359.01-19.3Q358.11-18.2 357.26-16.8L357.26-16.8 357.26 0 353.26 0ZM381.56 11.4L381.56-19.35Q381.56-21.15 381.31-24.7L381.31-24.7 385.01-25.2 385.46-22.5Q386.46-23.35 387.53-24.03 388.61-24.7 389.88-25.18 391.16-25.65 392.61-25.65L392.61-25.65Q394.66-25.65 396.48-24.95 398.31-24.25 399.68-22.7 401.06-21.15 401.86-18.68 402.66-16.2 402.66-12.6L402.66-12.6Q402.66-8.95 401.58-6.43 400.51-3.9 398.78-2.33 397.06-0.75 394.88-0.05 392.71 0.65 390.46 0.65L390.46 0.65Q388.06 0.6 385.56 0.05L385.56 0.05 385.56 10.9 381.56 11.4ZM390.46-2.85L390.46-2.85Q392.56-2.85 394.06-3.6 395.56-4.35 396.53-5.68 397.51-7 397.96-8.72 398.41-10.45 398.41-12.4L398.41-12.4Q398.41-14.15 398.08-15.9 397.76-17.65 397.03-19.03 396.31-20.4 395.11-21.28 393.91-22.15 392.16-22.15L392.16-22.15Q390.86-22.15 389.71-21.68 388.56-21.2 387.53-20.53 386.51-19.85 385.56-19L385.56-19 385.56-3.65Q386.11-3.45 386.78-3.28 387.46-3.1 388.38-2.98 389.31-2.85 390.46-2.85ZM408.56 0L408.56-21.1Q408.56-22.25 408.31-24.7L408.31-24.7 412.01-25.2 412.41-21.55 412.46-21.55Q413.36-22.7 414.21-23.55 415.06-24.4 415.98-25.03 416.91-25.65 417.76-25.65L417.76-25.65Q418.91-25.7 420.96-25.4L420.96-25.4 420.06-21.55Q418.41-21.85 417.76-21.8L417.76-21.8Q416.91-21.8 415.96-21 415.01-20.2 414.31-19.3L414.31-19.3Q413.41-18.2 412.56-16.8L412.56-16.8 412.56 0 408.56 0ZM439-5.85L439-11.55Q438-11.5 437.1-11.45 436.2-11.4 435.33-11.33 434.45-11.25 433.75-11.15L433.75-11.15Q430.15-10.7 428.65-9.58 427.15-8.45 427.15-6.35L427.15-6.35Q427.15-4.6 428.23-3.73 429.3-2.85 431.05-2.85L431.05-2.85Q433.45-2.85 435.33-3.68 437.2-4.5 439-5.85L439-5.85ZM439.45 0.4L438.95-2.35Q436.6-1 434.58-0.18 432.55 0.65 430.2 0.65L430.2 0.65Q426.85 0.65 424.88-0.98 422.9-2.6 422.9-6.35L422.9-6.35Q422.9-8.3 423.9-9.75 424.9-11.2 426.53-12.18 428.15-13.15 430.2-13.7 432.25-14.25 434.4-14.4L434.4-14.4Q435.3-14.5 436.75-14.58 438.2-14.65 439-14.7L439-14.7Q439-16.45 438.9-17.82 438.8-19.2 438.3-20.18 437.8-21.15 436.83-21.65 435.85-22.15 434.05-22.15L434.05-22.15Q432.6-22.15 431.25-21.98 429.9-21.8 428.85-21.6L428.85-21.6Q427.6-21.35 426.55-21.05L426.55-21.05 425.75-24.5Q427-24.8 428.45-25.05L428.45-25.05Q429.7-25.3 431.35-25.48 433-25.65 434.9-25.65L434.9-25.65Q437.45-25.65 439.03-24.9 440.6-24.15 441.48-22.88 442.35-21.6 442.68-19.98 443-18.35 443-16.55L443-16.55 443-4.55Q443-3.85 443.03-3.08 443.05-2.3 443.13-1.55 443.2-0.8 443.3 0L443.3 0 439.45 0.4ZM466.45-24.85L465.65-21.5Q464.8-21.7 463.3-21.93 461.8-22.15 460.25-22.15L460.25-22.15Q458-22.15 456.58-21.25 455.15-20.35 454.35-18.93 453.55-17.5 453.25-15.78 452.95-14.05 452.95-12.4L452.95-12.4Q452.95-9.85 453.6-8.03 454.25-6.2 455.33-5.05 456.4-3.9 457.8-3.38 459.2-2.85 460.75-2.85L460.75-2.85Q461.8-2.85 462.78-2.98 463.75-3.1 464.58-3.28 465.4-3.45 466.15-3.7L466.15-3.7 466.95-0.35Q465.9-0.05 465 0.15 464.1 0.35 462.88 0.5 461.65 0.65 460.25 0.65L460.25 0.65Q457.5 0.65 455.35-0.05 453.2-0.75 451.73-2.3 450.25-3.85 449.48-6.35 448.7-8.85 448.7-12.45L448.7-12.45Q448.7-15.95 449.68-18.48 450.65-21 452.25-22.58 453.85-24.15 455.93-24.9 458-25.65 460.25-25.65L460.25-25.65Q461.45-25.65 462.58-25.53 463.7-25.4 464.55-25.25L464.55-25.25Q465.55-25.05 466.45-24.85L466.45-24.85ZM473.75-32.15L477.75-32.65 477.75-25.15 485-25.15 485-21.9 477.75-21.9 477.75-8.55Q477.75-6.9 477.82-5.8 477.9-4.7 478.15-4.05 478.4-3.4 478.85-3.13 479.3-2.85 480-2.85L480-2.85Q481.9-2.9 484.4-4.25L484.4-4.25 485.6-1.2Q483.95-0.1 482.52 0.28 481.1 0.65 479.7 0.65L479.7 0.65Q476.4 0.65 475.07-1.23 473.75-3.1 473.75-7.45L473.75-7.45 473.75-21.9 469.15-21.9 469.15-25.15 473.75-25.15 473.75-32.15ZM490.1 0L490.1-25.2 494.1-25.65 494.1 0 490.1 0ZM489.45-32.35L489.45-32.35Q489.45-33.5 490.22-34.27 491-35.05 492.15-35.05L492.15-35.05Q493.35-35.05 494.17-34.27 495-33.5 495-32.35L495-32.35Q495-31.2 494.17-30.43 493.35-29.65 492.15-29.65L492.15-29.65Q491-29.65 490.22-30.43 489.45-31.2 489.45-32.35ZM517.69-24.85L516.89-21.5Q516.04-21.7 514.54-21.93 513.04-22.15 511.49-22.15L511.49-22.15Q509.24-22.15 507.82-21.25 506.39-20.35 505.59-18.93 504.79-17.5 504.49-15.78 504.19-14.05 504.19-12.4L504.19-12.4Q504.19-9.85 504.84-8.03 505.49-6.2 506.57-5.05 507.64-3.9 509.04-3.38 510.44-2.85 511.99-2.85L511.99-2.85Q513.04-2.85 514.02-2.98 514.99-3.1 515.82-3.28 516.64-3.45 517.39-3.7L517.39-3.7 518.19-0.35Q517.14-0.05 516.24 0.15 515.34 0.35 514.12 0.5 512.89 0.65 511.49 0.65L511.49 0.65Q508.74 0.65 506.59-0.05 504.44-0.75 502.97-2.3 501.49-3.85 500.72-6.35 499.94-8.85 499.94-12.45L499.94-12.45Q499.94-15.95 500.92-18.48 501.89-21 503.49-22.58 505.09-24.15 507.17-24.9 509.24-25.65 511.49-25.65L511.49-25.65Q512.69-25.65 513.82-25.53 514.94-25.4 515.79-25.25L515.79-25.25Q516.79-25.05 517.69-24.85L517.69-24.85ZM540.39-3.95L541.14-0.6Q539.99-0.25 538.77 0 537.54 0.25 536.07 0.45 534.59 0.65 532.99 0.65L532.99 0.65Q530.49 0.65 528.34-0.05 526.19-0.75 524.59-2.3 522.99-3.85 522.07-6.33 521.14-8.8 521.14-12.4L521.14-12.4Q521.14-15.65 522.04-18.13 522.94-20.6 524.52-22.28 526.09-23.95 528.22-24.8 530.34-25.65 532.84-25.65L532.84-25.65Q535.29-25.65 537.09-24.7 538.89-23.75 540.07-22.13 541.24-20.5 541.82-18.32 542.39-16.15 542.39-13.75L542.39-13.75 541.64-11.55 525.49-11.55Q525.49-10 525.89-8.45 526.29-6.9 527.27-5.65 528.24-4.4 529.82-3.63 531.39-2.85 533.74-2.85L533.74-2.85Q535.24-2.85 536.49-3.03 537.74-3.2 538.67-3.43 539.59-3.65 540.39-3.95L540.39-3.95ZM525.64-14.75L538.24-14.75Q538.24-15.1 538.09-16.3 537.94-17.5 537.39-18.8 536.84-20.1 535.69-21.13 534.54-22.15 532.64-22.15L532.64-22.15Q530.54-22.15 529.19-21.28 527.84-20.4 527.04-19.2 526.24-18 525.94-16.75 525.64-15.5 525.64-14.75L525.64-14.75ZM584.18-33L583.28-29.3Q582.03-29.7 580.63-30.03 579.23-30.35 577.56-30.58 575.88-30.8 574.03-30.8L574.03-30.8Q571.03-30.8 568.93-29.5 566.83-28.2 565.51-26.18 564.18-24.15 563.58-21.65 562.98-19.15 562.98-16.7L562.98-16.7Q562.98-13.6 563.86-11.08 564.73-8.55 566.26-6.78 567.78-5 569.81-4.05 571.83-3.1 574.08-3.1L574.08-3.1Q576.18-3.1 577.93-3.33 579.68-3.55 580.93-3.8L580.93-3.8Q582.38-4.1 583.53-4.5L583.53-4.5 584.38-0.95Q583.03-0.5 581.38-0.15L581.38-0.15Q579.98 0.15 578.13 0.4 576.28 0.65 574.08 0.65L574.08 0.65Q570.13 0.65 567.16-0.65 564.18-1.95 562.21-4.28 560.23-6.6 559.23-9.78 558.23-12.95 558.23-16.75L558.23-16.75Q558.23-21.1 559.43-24.43 560.63-27.75 562.73-30 564.83-32.25 567.73-33.4 570.63-34.55 574.08-34.55L574.08-34.55Q576.18-34.55 578.01-34.33 579.83-34.1 581.36-33.75 582.88-33.4 584.18-33L584.18-33ZM597.58 0L597.58-30.2 586.88-30.2 586.88-34.1 612.48-34.1 612.48-30.2 601.78-30.2 601.78 0 597.58 0ZM617.73 0L617.73-34.1 638.63-34.1 638.63-30.25 621.93-30.25 621.93-19.35 637.43-19.35 637.43-15.6 621.93-15.6 621.93 0 617.73 0ZM671.82-24.85L671.02-21.5Q670.17-21.7 668.67-21.93 667.17-22.15 665.62-22.15L665.62-22.15Q663.37-22.15 661.95-21.25 660.52-20.35 659.72-18.93 658.92-17.5 658.62-15.78 658.32-14.05 658.32-12.4L658.32-12.4Q658.32-9.85 658.97-8.03 659.62-6.2 660.7-5.05 661.77-3.9 663.17-3.38 664.57-2.85 666.12-2.85L666.12-2.85Q667.17-2.85 668.15-2.98 669.12-3.1 669.95-3.28 670.77-3.45 671.52-3.7L671.52-3.7 672.32-0.35Q671.27-0.05 670.37 0.15 669.47 0.35 668.25 0.5 667.02 0.65 665.62 0.65L665.62 0.65Q662.87 0.65 660.72-0.05 658.57-0.75 657.1-2.3 655.62-3.85 654.85-6.35 654.07-8.85 654.07-12.45L654.07-12.45Q654.07-15.95 655.05-18.48 656.02-21 657.62-22.58 659.22-24.15 661.3-24.9 663.37-25.65 665.62-25.65L665.62-25.65Q666.82-25.65 667.95-25.53 669.07-25.4 669.92-25.25L669.92-25.25Q670.92-25.05 671.82-24.85L671.82-24.85ZM679.52-12.45L679.52-12.45Q679.52-7.6 681.7-5.23 683.87-2.85 687.57-2.85L687.57-2.85Q691.22-2.85 693.27-5.2 695.32-7.55 695.32-12.25L695.32-12.25Q695.32-17.25 693.15-19.7 690.97-22.15 687.22-22.15L687.22-22.15Q683.47-22.15 681.5-19.73 679.52-17.3 679.52-12.45ZM675.27-12.5L675.27-12.5Q675.27-16.3 676.47-18.82 677.67-21.35 679.52-22.88 681.37-24.4 683.5-25.03 685.62-25.65 687.52-25.65L687.52-25.65Q689.32-25.65 691.45-25.08 693.57-24.5 695.37-23.03 697.17-21.55 698.37-19.07 699.57-16.6 699.57-12.8L699.57-12.8Q699.57-8.85 698.35-6.25 697.12-3.65 695.27-2.13 693.42-0.6 691.27 0.03 689.12 0.65 687.27 0.65L687.27 0.65Q685.37 0.65 683.27 0.05 681.17-0.55 679.4-2.02 677.62-3.5 676.45-6.05 675.27-8.6 675.27-12.5ZM705.42 0L705.42-20.6Q705.42-22.3 705.12-24.7L705.12-24.7 708.87-25.2 709.42-22.05Q710.77-23.05 712.07-23.8 713.37-24.55 714.87-25.1 716.37-25.65 717.92-25.65L717.92-25.65Q720.42-25.65 721.87-24.78 723.32-23.9 724.02-21.8L724.02-21.8Q726.07-23.25 728.29-24.45 730.52-25.65 732.92-25.65L732.92-25.65Q734.77-25.65 736.07-25.18 737.37-24.7 738.17-23.6 738.97-22.5 739.32-20.7 739.67-18.9 739.67-16.2L739.67-16.2 739.67 0 735.67 0 735.67-15.75Q735.67-17.25 735.62-18.43 735.57-19.6 735.27-20.43 734.97-21.25 734.29-21.7 733.62-22.15 732.37-22.15L732.37-22.15Q731.22-22.15 730.19-21.83 729.17-21.5 728.07-20.9 726.97-20.3 724.67-18.45L724.67-18.45 724.67 0 720.67 0 720.67-15.75Q720.67-17.25 720.62-18.43 720.57-19.6 720.27-20.43 719.97-21.25 719.29-21.7 718.62-22.15 717.37-22.15L717.37-22.15Q716.07-22.15 714.67-21.6 713.27-21.05 712.02-20.3 710.77-19.55 709.42-18.55L709.42-18.55 709.42 0 705.42 0ZM746.77 11.4L746.77-19.35Q746.77-21.15 746.52-24.7L746.52-24.7 750.22-25.2 750.67-22.5Q751.67-23.35 752.74-24.03 753.82-24.7 755.09-25.18 756.37-25.65 757.82-25.65L757.82-25.65Q759.87-25.65 761.69-24.95 763.52-24.25 764.89-22.7 766.27-21.15 767.07-18.68 767.87-16.2 767.87-12.6L767.87-12.6Q767.87-8.95 766.79-6.43 765.72-3.9 763.99-2.33 762.27-0.75 760.09-0.05 757.92 0.65 755.67 0.65L755.67 0.65Q753.27 0.6 750.77 0.05L750.77 0.05 750.77 10.9 746.77 11.4ZM755.67-2.85L755.67-2.85Q757.77-2.85 759.27-3.6 760.77-4.35 761.74-5.68 762.72-7 763.17-8.72 763.62-10.45 763.62-12.4L763.62-12.4Q763.62-14.15 763.29-15.9 762.97-17.65 762.24-19.03 761.52-20.4 760.32-21.28 759.12-22.15 757.37-22.15L757.37-22.15Q756.07-22.15 754.92-21.68 753.77-21.2 752.74-20.53 751.72-19.85 750.77-19L750.77-19 750.77-3.65Q751.32-3.45 751.99-3.28 752.67-3.1 753.59-2.98 754.52-2.85 755.67-2.85ZM791.56-3.95L792.31-0.6Q791.16-0.25 789.94 0 788.71 0.25 787.24 0.45 785.76 0.65 784.16 0.65L784.16 0.65Q781.66 0.65 779.51-0.05 777.36-0.75 775.76-2.3 774.16-3.85 773.24-6.33 772.31-8.8 772.31-12.4L772.31-12.4Q772.31-15.65 773.21-18.13 774.11-20.6 775.69-22.28 777.26-23.95 779.39-24.8 781.51-25.65 784.01-25.65L784.01-25.65Q786.46-25.65 788.26-24.7 790.06-23.75 791.24-22.13 792.41-20.5 792.99-18.32 793.56-16.15 793.56-13.75L793.56-13.75 792.81-11.55 776.66-11.55Q776.66-10 777.06-8.45 777.46-6.9 778.44-5.65 779.41-4.4 780.99-3.63 782.56-2.85 784.91-2.85L784.91-2.85Q786.41-2.85 787.66-3.03 788.91-3.2 789.84-3.43 790.76-3.65 791.56-3.95L791.56-3.95ZM776.81-14.75L789.41-14.75Q789.41-15.1 789.26-16.3 789.11-17.5 788.56-18.8 788.01-20.1 786.86-21.13 785.71-22.15 783.81-22.15L783.81-22.15Q781.71-22.15 780.36-21.28 779.01-20.4 778.21-19.2 777.41-18 777.11-16.75 776.81-15.5 776.81-14.75L776.81-14.75ZM800.86-32.15L804.86-32.65 804.86-25.15 812.11-25.15 812.11-21.9 804.86-21.9 804.86-8.55Q804.86-6.9 804.94-5.8 805.01-4.7 805.26-4.05 805.51-3.4 805.96-3.13 806.41-2.85 807.11-2.85L807.11-2.85Q809.01-2.9 811.51-4.25L811.51-4.25 812.71-1.2Q811.06-0.1 809.64 0.28 808.21 0.65 806.81 0.65L806.81 0.65Q803.51 0.65 802.19-1.23 800.86-3.1 800.86-7.45L800.86-7.45 800.86-21.9 796.26-21.9 796.26-25.15 800.86-25.15 800.86-32.15ZM817.21 0L817.21-25.2 821.21-25.65 821.21 0 817.21 0ZM816.56-32.35L816.56-32.35Q816.56-33.5 817.33-34.27 818.11-35.05 819.26-35.05L819.26-35.05Q820.46-35.05 821.28-34.27 822.11-33.5 822.11-32.35L822.11-32.35Q822.11-31.2 821.28-30.43 820.46-29.65 819.26-29.65L819.26-29.65Q818.11-29.65 817.33-30.43 816.56-31.2 816.56-32.35ZM830.26-32.15L834.26-32.65 834.26-25.15 841.51-25.15 841.51-21.9 834.26-21.9 834.26-8.55Q834.26-6.9 834.33-5.8 834.41-4.7 834.66-4.05 834.91-3.4 835.36-3.13 835.81-2.85 836.51-2.85L836.51-2.85Q838.41-2.9 840.91-4.25L840.91-4.25 842.11-1.2Q840.46-0.1 839.03 0.28 837.61 0.65 836.21 0.65L836.21 0.65Q832.91 0.65 831.58-1.23 830.26-3.1 830.26-7.45L830.26-7.45 830.26-21.9 825.66-21.9 825.66-25.15 830.26-25.15 830.26-32.15ZM846.6 0L846.6-25.2 850.6-25.65 850.6 0 846.6 0ZM845.95-32.35L845.95-32.35Q845.95-33.5 846.73-34.27 847.5-35.05 848.65-35.05L848.65-35.05Q849.85-35.05 850.68-34.27 851.5-33.5 851.5-32.35L851.5-32.35Q851.5-31.2 850.68-30.43 849.85-29.65 848.65-29.65L848.65-29.65Q847.5-29.65 846.73-30.43 845.95-31.2 845.95-32.35ZM860.65-12.45L860.65-12.45Q860.65-7.6 862.83-5.23 865-2.85 868.7-2.85L868.7-2.85Q872.35-2.85 874.4-5.2 876.45-7.55 876.45-12.25L876.45-12.25Q876.45-17.25 874.28-19.7 872.1-22.15 868.35-22.15L868.35-22.15Q864.6-22.15 862.63-19.73 860.65-17.3 860.65-12.45ZM856.4-12.5L856.4-12.5Q856.4-16.3 857.6-18.82 858.8-21.35 860.65-22.88 862.5-24.4 864.63-25.03 866.75-25.65 868.65-25.65L868.65-25.65Q870.45-25.65 872.58-25.08 874.7-24.5 876.5-23.03 878.3-21.55 879.5-19.07 880.7-16.6 880.7-12.8L880.7-12.8Q880.7-8.85 879.48-6.25 878.25-3.65 876.4-2.13 874.55-0.6 872.4 0.03 870.25 0.65 868.4 0.65L868.4 0.65Q866.5 0.65 864.4 0.05 862.3-0.55 860.53-2.02 858.75-3.5 857.58-6.05 856.4-8.6 856.4-12.5ZM886.55 0L886.55-20.15Q886.6-21.2 886.3-24.7L886.3-24.7 890-25.2 890.55-22Q892.05-23 893.52-23.75 895-24.5 896.55-25.08 898.1-25.65 899.55-25.65L899.55-25.65Q901.6-25.65 902.97-25.18 904.35-24.7 905.2-23.6 906.05-22.5 906.42-20.7 906.8-18.9 906.8-16.2L906.8-16.2 906.8 0 902.8 0 902.8-15.75Q902.8-17.25 902.75-18.43 902.7-19.6 902.32-20.43 901.95-21.25 901.17-21.7 900.4-22.15 899-22.15L899-22.15Q897.7-22.15 896.25-21.58 894.8-21 893.4-20.25 892-19.5 890.55-18.5L890.55-18.5 890.55 0 886.55 0Z" opacity="1" transform="matrix(1,0,0,1,0,0)" fill="#6a704c" class="slogan-text-1" data-fill-palette-color="secondary" id="text-1"></path></svg></g></svg></g></svg></g></svg></g><g transform="matrix(1,0,0,1,76.53311999999998,0)"><svg viewBox="0 0 244.43136 243.9388052899246" height="243.9388052899246" width="244.43136"><g><svg xmlns="http://www.w3.org/2000/svg" xmlns:xlink="http://www.w3.org/1999/xlink" version="1.1" x="8" y="0" viewBox="11.421 8.802 77.15799999999999 82.39599999999999" style="enable-background:new 0 0 100 100;" xml:space="preserve" height="243.9388052899246" width="228.43136" class="icon-icon-0" data-fill-palette-color="accent" id="icon-0"><g fill="#412e27" data-fill-palette-color="accent"><rect x="46.911" y="44.468" width="6" height="8.5" fill="#412e27" data-fill-palette-color="accent"></rect><path d="M60.25 91.198H88.579V44.468H69.909V56.468H65.079V32.468H52.911V26.635H65.079V12.552H52.911V8.802H46.911V32.468H34.911V56.468H30.081V44.468H11.421V91.198zM59.079 18.552V20.635H52.911V18.552zM45.75 85.198V80.218H54.25V85.198zM17.421 85.198V50.468H24.081V62.468H40.911V38.468H59.079V62.468H75.909V50.468H82.579V85.198H60.25V74.218H39.75V85.198z" fill="#412e27" data-fill-palette-color="accent"></path></g></svg></g></svg></g><g></g></svg></g><defs></defs></svg><rect width="180.10088527315588" height="247.2" fill="none" stroke="none" visibility="hidden"></rect></g></svg></g></svg>