<svg width="88" height="105" viewBox="0 0 88 105" fill="none" xmlns="http://www.w3.org/2000/svg">
<g clip-path="url(#clip0_12_39)">
<g clip-path="url(#clip1_12_39)">
<g clip-path="url(#clip2_12_39)">
<g clip-path="url(#clip3_12_39)">
<path d="M87.3011 60.6011H0.901043C0.41413 60.6011 0.0194092 60.9575 0.0194092 61.3972V62.6983C0.0194092 63.138 0.41413 63.4945 0.901043 63.4945H87.3011C87.788 63.4945 88.1827 63.138 88.1827 62.6983V61.3972C88.1827 60.9575 87.788 60.6011 87.3011 60.6011Z" fill="#FD696E"/>
<g clip-path="url(#clip4_12_39)">
<g clip-path="url(#clip5_12_39)">
<g clip-path="url(#clip6_12_39)">
<g clip-path="url(#clip7_12_39)">
<path d="M16.3165 103.153C13.0913 103.153 10.2603 102.538 7.82354 101.309C5.38674 100.079 3.51614 98.3379 2.21174 96.0857C0.90017 93.84 0.244385 91.1963 0.244385 88.1545C0.244385 84.9186 1.05068 81.9965 2.66326 79.3884C4.27585 76.7867 6.50839 74.7481 9.36087 73.2725C12.2062 71.8034 15.4206 71.0688 19.0041 71.0688C20.33 71.0688 21.6846 71.1562 23.0679 71.331C24.4439 71.5122 25.6086 71.6901 26.5618 71.8649C27.5078 72.0461 28.1063 72.1691 28.3571 72.2338L28.5722 72.525C28.5005 72.7192 28.3858 73.1884 28.2281 73.9326C28.0633 74.6769 27.8841 75.6477 27.6906 76.845C27.4899 78.0423 27.3358 79.3043 27.2283 80.631L24.6482 80.8251C24.684 80.6634 24.7199 80.3624 24.7557 79.9223C24.7915 79.4887 24.8095 78.9969 24.8095 78.4467C24.8095 75.4373 22.1756 73.9326 16.9078 73.9326C14.5427 73.9326 12.4642 74.4504 10.6724 75.4859C8.88068 76.5214 7.50102 77.984 6.53347 79.8738C5.56592 81.77 5.08214 83.9963 5.08214 86.5527C5.08214 89.368 5.59459 91.8435 6.61948 93.9792C7.6372 96.1149 9.07778 97.7717 10.9412 98.9495C12.8046 100.134 14.9548 100.726 17.3916 100.726C19.8284 100.726 21.7921 100.102 23.2829 98.8525C24.7665 97.6099 25.8487 95.678 26.5295 93.0569L29.1097 92.8628C29.0022 93.3482 28.7693 94.4225 28.4109 96.0857C28.0525 97.7555 27.8017 99.3184 27.6584 100.775L27.3358 101.211C27.3358 101.244 26.7911 101.428 25.7018 101.765C24.6052 102.108 23.2435 102.425 21.6165 102.716C19.9824 103.007 18.2158 103.153 16.3165 103.153ZM38.4627 102.765L38.8927 100.678C40.6845 100.548 41.9208 100.344 42.6017 100.066C43.2825 99.7941 43.7305 99.2925 43.9455 98.5612C44.1605 97.8364 44.268 96.5517 44.268 94.7072V73.5443C41.222 73.6414 39.1507 73.7935 38.0542 74.0006C36.9648 74.2142 36.223 74.6834 35.8288 75.4082C35.4346 76.1395 35.0763 77.5569 34.7537 79.6602L32.2274 79.8544C32.6574 76.7802 32.9261 73.9812 33.0336 71.4572L33.5174 71.0688L37.9789 71.6028H54.6423L59.2113 71.0688L59.6951 71.4572C59.8026 74.1106 60.0713 76.845 60.5014 79.6602L57.975 79.8544C57.5808 77.7187 57.1866 76.2787 56.7924 75.5344C56.3982 74.7902 55.6994 74.3048 54.6961 74.0783C53.6927 73.8517 51.7576 73.6738 48.8907 73.5443C48.6757 75.4859 48.4786 78.916 48.2995 83.8346C48.1203 88.7531 48.0307 93.1864 48.0307 97.1342C48.0307 98.3315 48.2636 99.1793 48.7295 99.6776C49.1953 100.182 49.9837 100.435 51.0946 100.435C52.1697 100.435 53.1551 100.386 54.051 100.289L54.2123 100.483L53.7285 102.716L51.9547 102.668L45.8268 102.571C43.8559 102.571 41.4012 102.635 38.4627 102.765ZM64.1996 103.153L64.5328 100.92C66.1741 100.629 67.2814 100.199 67.8548 99.6291C68.4281 99.066 68.7148 98.105 68.7148 96.7459L68.7793 76.3596C68.7793 75.3241 68.6431 74.6284 68.3708 74.2724C68.1056 73.9165 67.5752 73.7385 66.7797 73.7385C66.4214 73.7385 66.063 73.7547 65.7047 73.787C65.3463 73.8194 65.099 73.8356 64.9629 73.8356L64.8446 73.6414L65.2316 71.5057C65.6903 71.5381 66.6292 71.5704 68.0483 71.6028C69.4674 71.6351 71.0154 71.6513 72.6925 71.6513C79.7592 71.6513 84.7941 71.4572 87.7971 71.0688L87.9583 71.3601C87.9297 71.5542 87.8329 72.0073 87.6681 72.7192C87.5032 73.4311 87.3312 74.418 87.152 75.68C86.9729 76.942 86.8295 78.2364 86.722 79.5631L84.1526 79.7573C84.1526 79.5955 84.167 79.2881 84.1956 78.8351C84.2315 78.382 84.2494 77.9452 84.2494 77.5245C84.2494 76.3919 84.0989 75.6056 83.7979 75.1655C83.4969 74.7319 82.8805 74.4407 81.9488 74.2918C81.0099 74.1494 79.3758 74.0783 77.0465 74.0783C75.7923 74.0783 74.9358 74.1106 74.4771 74.1753C74.0041 74.24 73.6959 74.3921 73.5526 74.6316C73.4164 74.8775 73.3268 75.3241 73.2838 75.9713L72.8645 86.213L78.3903 86.2615C79.0712 86.2615 80.0782 86.1871 81.4112 86.0382C82.73 85.8958 83.6044 85.7923 84.0344 85.7276L84.2494 85.9703L83.4969 88.8826C83.0382 88.8502 82.171 88.8179 80.8952 88.7855C79.6266 88.7531 78.2936 88.737 76.896 88.737C75.5629 88.737 74.1797 88.8502 72.7463 89.0767L72.542 97.1342C72.542 98.4609 72.6997 99.3411 73.015 99.7747C73.3376 100.215 73.9647 100.435 74.8964 100.435C75.6131 100.435 76.3585 100.412 77.1325 100.367C77.8994 100.315 78.4297 100.289 78.7236 100.289L78.8204 100.483L78.3366 102.765C77.7632 102.732 76.6989 102.693 75.1437 102.648C73.5884 102.596 71.983 102.571 70.3274 102.571C69.2165 102.571 68.016 102.651 66.726 102.813C65.4431 102.975 64.6009 103.088 64.1996 103.153Z" fill="#FD696E"/>
</g>
</g>
</g>
</g>
<g clip-path="url(#clip8_12_39)">
<g clip-path="url(#clip9_12_39)">
<path d="M46.0126 25.3185H42.0728V30.3585H46.0126V25.3185Z" fill="#FD696E"/>
<path d="M50.8317 53.0268H69.4337V25.3184H57.1742V32.4338H54.0026V18.2031H46.0126V14.7444H54.0026V6.39396H46.0126V4.17041H42.0728V18.2031H34.1931V32.4338H31.0215V25.3184H18.7686V53.0268H50.8317ZM50.0628 9.95164V11.1867H46.0126V9.95164H50.0628ZM41.3104 49.4691V46.5163H46.8918V49.4691H41.3104ZM22.7084 49.4691V28.8761H27.0816V35.9915H38.1329V21.7608H50.0628V35.9915H61.114V28.8761H65.4938V49.4691H50.8317V42.9586H37.3705V49.4691H22.7084Z" fill="#FD696E"/>
</g>
</g>
</g>
</g>
</g>
</g>
<defs>
<clipPath id="clip0_12_39">
<rect width="88" height="104.252" fill="white" transform="translate(0 0.408813)"/>
</clipPath>
<clipPath id="clip1_12_39">
<rect width="88.6142" height="109.625" fill="white" transform="translate(-0.206055 3.99365)"/>
</clipPath>
<clipPath id="clip2_12_39">
<rect width="88.1633" height="109.272" fill="white" transform="translate(0.0194092 4.17041)"/>
</clipPath>
<clipPath id="clip3_12_39">
<rect width="88.1633" height="109.272" fill="white" transform="translate(0.0194092 4.17041)"/>
</clipPath>
<clipPath id="clip4_12_39">
<rect width="87.7247" height="42.3733" fill="white" transform="translate(0.23877 71.0688)"/>
</clipPath>
<clipPath id="clip5_12_39">
<rect width="87.7247" height="42.3733" fill="white" transform="translate(0.23877 71.0688)"/>
</clipPath>
<clipPath id="clip6_12_39">
<rect width="87.7247" height="32.0841" fill="white" transform="translate(0.23877 71.0688)"/>
</clipPath>
<clipPath id="clip7_12_39">
<rect width="87.7247" height="32.0841" fill="white" transform="translate(0.23877 71.0688)"/>
</clipPath>
<clipPath id="clip8_12_39">
<rect width="54.2139" height="48.8564" fill="white" transform="translate(16.9941 4.17041)"/>
</clipPath>
<clipPath id="clip9_12_39">
<rect width="50.6651" height="48.8564" fill="white" transform="translate(18.7686 4.17041)"/>
</clipPath>
</defs>
</svg>
