<?xml version="1.0" encoding="UTF-8"?>
<svg version="1.1" xmlns="http://www.w3.org/2000/svg" width="2363" height="2364">
<path d="M0 0 C1.94767904 3.80738091 3.88124404 7.6217659 5.8125 11.4375 C6.63331055 13.04141602 6.63331055 13.04141602 7.47070312 14.67773438 C8.26831055 16.25844727 8.26831055 16.25844727 9.08203125 17.87109375 C9.56905518 18.82943115 10.0560791 19.78776855 10.55786133 20.77514648 C12.32781621 24.73304965 13.62895158 28.88685474 15 33 C30.345 32.505 30.345 32.505 46 32 C49.39818586 24.83761644 49.39818586 24.83761644 52.78979492 17.67211914 C55.65579066 11.6556022 58.67439285 5.77576626 62 0 C70.68428254 0.17254757 78.54927719 1.68930364 86.9375 3.875 C87.93209229 4.13168457 88.92668457 4.38836914 89.95141602 4.65283203 C95.11967122 6.04285723 99.11120675 7.55560338 104 10 C104 22.54 104 35.08 104 48 C105.65 48.66 107.3 49.32 109 50 C110.51292801 50.75983191 112.01434506 51.54298043 113.50390625 52.34765625 C114.32697266 52.78787109 115.15003906 53.22808594 115.99804688 53.68164062 C117.71234169 54.60472245 119.4258804 55.5292098 121.13867188 56.45507812 C121.96044922 56.89400391 122.78222656 57.33292969 123.62890625 57.78515625 C124.7437439 58.38662476 124.7437439 58.38662476 125.88110352 59.00024414 C128.83041036 60.39225292 128.83041036 60.39225292 132 61 C134.1706894 59.94758362 134.1706894 59.94758362 136.265625 58.24609375 C137.07386719 57.63830078 137.88210938 57.03050781 138.71484375 56.40429688 C139.55144531 55.75525391 140.38804687 55.10621094 141.25 54.4375 C142.07113281 53.81552734 142.89226562 53.19355469 143.73828125 52.55273438 C148.53191611 48.92567236 148.53191611 48.92567236 153.21679688 45.16064453 C158.28024889 41.05164134 158.28024889 41.05164134 161.61328125 40.8125 C164.87452332 42.43511471 167.49030645 44.59232431 170.1875 47 C170.75412354 47.49330811 171.32074707 47.98661621 171.90454102 48.49487305 C173.61201948 49.98672563 175.3070272 51.49172429 177 53 C178.41539062 54.24716797 178.41539062 54.24716797 179.859375 55.51953125 C182.26202322 57.65643202 184.63261886 59.82422345 187 62 C187.65484375 62.56589844 188.3096875 63.13179687 188.984375 63.71484375 C190.6875 65.25 190.6875 65.25 193 68 C192.72246527 72.40622143 190.66671628 75.83234632 188.5859375 79.65625 C187.90060509 80.93856885 187.21572272 82.22112831 186.53125 83.50390625 C185.45258184 85.5082016 184.36960792 87.50986947 183.27832031 89.50732422 C182.22242011 91.44631499 181.18446059 93.39408435 180.1484375 95.34375 C179.52114746 96.50068359 178.89385742 97.65761719 178.24755859 98.84960938 C176.87107054 102.32557841 176.7023708 103.54814583 178 107 C179.48128714 109.65614202 179.48128714 109.65614202 181.37890625 112.30078125 C182.05244141 113.27724609 182.72597656 114.25371094 183.41992188 115.25976562 C184.12697266 116.26716797 184.83402344 117.27457031 185.5625 118.3125 C186.27341797 119.33923828 186.98433594 120.36597656 187.71679688 121.42382812 C189.47056316 123.95443049 191.23179498 126.47947528 193 129 C193.68924561 128.91435791 194.37849121 128.82871582 195.08862305 128.74047852 C220.37660601 125.61248196 220.37660601 125.61248196 231 125 C235.79940936 133.81346083 239.83773965 142.6727536 243.0625 152.1875 C243.37324463 153.08364014 243.68398926 153.97978027 244.00415039 154.90307617 C244.28250732 155.75361572 244.56086426 156.60415527 244.84765625 157.48046875 C245.09523682 158.23223389 245.34281738 158.98399902 245.59790039 159.75854492 C246.10551534 162.58818234 245.97047603 164.28304527 245 167 C242.88623047 168.95703125 242.88623047 168.95703125 240.1171875 170.8125 C239.11429688 171.49570312 238.11140625 172.17890625 237.078125 172.8828125 C236.02109375 173.58148437 234.9640625 174.28015625 233.875 175 C230.82169133 177.06345798 227.7686223 179.12724249 224.71777344 181.19433594 C223.06730952 182.29088922 221.39746961 183.35988356 219.69628906 184.37597656 C217.52359983 185.64966433 217.52359983 185.64966433 215 188 C214.33277834 191.27922987 214.33277834 191.27922987 215 194.75 C215.15339844 195.98621094 215.30679687 197.22242188 215.46484375 198.49609375 C215.64144531 199.65238281 215.81804687 200.80867187 216 202 C216.19528162 203.60323798 216.38414345 205.20729102 216.5625 206.8125 C216.645 207.49828125 216.7275 208.1840625 216.8125 208.890625 C217.14193164 212.59673096 217.05901647 216.2819627 217 220 C217.81960205 220.22586792 217.81960205 220.22586792 218.65576172 220.45629883 C226.65094634 222.75005269 234.36938553 225.70552742 242.125 228.6875 C243.47643786 229.20410221 244.82799958 229.72038055 246.1796875 230.23632812 C249.45455893 231.48716096 252.7277407 232.742347 256 234 C255.64161493 248.54924566 254.49755635 262.65868587 252 277 C247.30508314 277.5757628 242.6094551 278.14518996 237.91308594 278.70898438 C236.31847866 278.90129233 234.72407207 279.09527257 233.12988281 279.29101562 C230.82669123 279.57350971 228.52282371 279.84980472 226.21875 280.125 C225.51633179 280.21249512 224.81391357 280.29999023 224.09020996 280.39013672 C219.36252774 280.94682879 214.76071983 281.07467796 210 281 C209.74605469 282.28261719 209.49210937 283.56523438 209.23046875 284.88671875 C207.88516382 290.9506837 205.6064813 296.58130104 203.30273438 302.33398438 C202.99271484 303.13771484 202.68269531 303.94144531 202.36328125 304.76953125 C201.93462769 305.84618042 201.93462769 305.84618042 201.49731445 306.94458008 C200.90990316 309.37237373 201.14667069 310.6706253 202 313 C206.35247518 319.15419746 211.58668694 324.70940138 216.6875 330.25 C217.15236816 330.7560376 217.61723633 331.2620752 218.09619141 331.78344727 C220.0657727 333.92202047 222.04521342 336.04675188 224.06640625 338.13671875 C225.75 339.9375 225.75 339.9375 228 343 C227.38034458 352.5883523 218.45116695 363.02932858 213.1875 370.8125 C212.71973145 371.51221924 212.25196289 372.21193848 211.77001953 372.93286133 C208.36036403 377.87987866 208.36036403 377.87987866 205 379 C202.17793999 378.01723968 199.49279658 376.9605398 196.75390625 375.78125 C195.09571914 375.08980534 193.4375155 374.39840031 191.77929688 373.70703125 C189.16654112 372.60389503 186.55542123 371.49699313 183.94506836 370.38818359 C181.42682901 369.32234515 178.90321612 368.27011212 176.37890625 367.21875 C175.59963272 366.88234497 174.82035919 366.54593994 174.01747131 366.19934082 C173.28668869 365.89572632 172.55590607 365.59211182 171.80297852 365.27929688 C170.84392357 364.87173157 170.84392357 364.87173157 169.86549377 364.45593262 C167.51965592 363.88260238 166.2497252 364.14938953 164 365 C161.80336946 366.84631822 159.74334899 368.69633207 157.6875 370.6875 C154.11370371 374.12764947 150.68839487 377.28450704 146.5625 380.0625 C143.75591468 382.61614039 143.75591468 382.61614039 144.04003906 385.11523438 C144.21760742 385.95376953 144.39517578 386.79230469 144.578125 387.65625 C144.88665405 389.1249353 144.88665405 389.1249353 145.20141602 390.62329102 C146.94316785 397.98806316 148.83300151 405.31435898 150.76733398 412.63061523 C151.3259364 414.75036067 151.87274274 416.87287467 152.41796875 418.99609375 C152.74563232 420.24575928 153.0732959 421.4954248 153.41088867 422.78295898 C154.24092908 427.31567446 154.24092908 427.31567446 153 430 C150.66878862 431.76415996 148.43693698 433.26337633 145.9375 434.75 C145.22883789 435.17958008 144.52017578 435.60916016 143.79003906 436.05175781 C138.69027927 439.09722917 133.51498469 442.00028354 128.25 444.75 C127.25021118 445.28898926 127.25021118 445.28898926 126.23022461 445.83886719 C124.328125 446.796875 124.328125 446.796875 121 448 C117.65102226 446.84322157 115.8799276 444.98099612 113.6875 442.26171875 C112.78644531 441.15473633 112.78644531 441.15473633 111.8671875 440.02539062 C111.25101563 439.25388672 110.63484375 438.48238281 110 437.6875 C109.38382813 436.92759766 108.76765625 436.16769531 108.1328125 435.38476562 C106.41431124 433.26245344 104.70516237 431.13303573 103 429 C102.195625 427.99582031 101.39125 426.99164062 100.5625 425.95703125 C99.7890625 424.98830078 99.7890625 424.98830078 99 424 C98.83564453 425.21236328 98.83564453 425.21236328 98.66796875 426.44921875 C98.50941406 427.51785156 98.35085938 428.58648438 98.1875 429.6875 C98.03667969 430.74324219 97.88585938 431.79898437 97.73046875 432.88671875 C96.73558433 437.12694805 95.19079093 439.98432538 91.875 442.8125 C87.83285584 444.48208128 84.31174193 444.68440348 80 444 C75.5016727 441.75083635 73.14673706 439.51398135 71 435 C70.78259094 432.35938574 70.71851875 429.974588 70.8125 427.34765625 C70.82953979 426.24278114 70.82953979 426.24278114 70.84692383 425.11558533 C70.89545314 421.98810638 70.97886976 418.86184347 71.06152344 415.73510742 C71.38335424 402.39465586 70.70447649 389.68694622 64.3125 377.625 C63.96727295 376.95581543 63.6220459 376.28663086 63.26635742 375.59716797 C59.45950581 368.52791604 54.88702714 362.51452654 47 360 C42.6999909 359.68238569 39.73744087 360.43405701 36.3125 363.0625 C34.04248079 365.75866862 34.04248079 365.75866862 32.90234375 368.109375 C32.52207031 368.83640625 32.14179687 369.5634375 31.75 370.3125 C31.43546875 371.00988281 31.1209375 371.70726562 30.796875 372.42578125 C28.15607646 374.73935041 25.9067288 374.35835767 22.49169922 374.21459961 C18.51797675 373.87235955 14.61499175 373.31322096 10.6875 372.625 C9.90310547 372.49867188 9.11871094 372.37234375 8.31054688 372.2421875 C4.57051817 371.6066686 1.2811627 371.02323706 -2 369 C16.11598521 335.57768469 16.11598521 335.57768469 33.22265625 330.31640625 C42.16858613 328.09143227 51.33334305 328.07527383 59.6640625 332.375 C74.02340246 341.11195051 84.09828408 352.69619513 91 368 C124.48827856 352.35584067 150.21366603 323.55595484 163.28515625 288.97558594 C177.43709009 249.86443543 177.0136063 206.86421586 159.81298828 168.68383789 C152.30264891 152.7918948 142.03200421 138.77176577 130 126 C129.10087891 125.00419922 129.10087891 125.00419922 128.18359375 123.98828125 C104.09031387 98.33388172 67.81951491 85.59824047 33.43359375 83.87109375 C-1.12064972 83.0797752 -33.71110096 96.0801954 -60 118 C-60.51159668 118.42506836 -61.02319336 118.85013672 -61.55029297 119.28808594 C-91.0409899 144.14893987 -107.87350164 182.2861215 -111.6875 220.125 C-114.30220835 260.21719468 -102.94367306 301.65037343 -76.19921875 332.26171875 C-73.53151196 335.23895887 -70.77339857 338.12122914 -68 341 C-67.35804688 341.70511719 -66.71609375 342.41023438 -66.0546875 343.13671875 C-45.38534935 365.19296054 -12.87239745 379.51047369 17 382 C19.83256489 382.04230747 22.65058634 381.9336247 25.48046875 381.81640625 C27.07221148 381.77457891 28.66401267 381.73492889 30.25585938 381.69726562 C32.73265983 381.63541338 35.20624254 381.56166516 37.68139648 381.45141602 C51.47587412 380.86172218 51.47587412 380.86172218 55.14379883 383.60107422 C56.50920849 385.71498098 57.28601049 387.59355018 58 390 C58.67482422 391.5159375 58.67482422 391.5159375 59.36328125 393.0625 C63.29374399 405.22590734 63.05677043 415.70764297 59.66290283 427.88804626 C57.54660104 435.50343073 55.90637784 443.21156687 54.25 450.9375 C53.93131759 452.41087827 53.6123085 453.88418593 53.29296875 455.35742188 C52.52490086 458.90414672 51.76117893 462.45178945 51 466 C47.24788923 467.19266905 43.6665439 467.12939918 39.75 467.1328125 C39.05487305 467.13376923 38.35974609 467.13472595 37.64355469 467.13571167 C36.17773345 467.13639044 34.71190917 467.1345573 33.24609375 467.13037109 C31.00774355 467.12501852 28.76959399 467.13032629 26.53125 467.13671875 C25.10416623 467.13605791 23.67708258 467.13477664 22.25 467.1328125 C20.95578125 467.13168457 19.6615625 467.13055664 18.328125 467.12939453 C15.62490075 467.02429558 13.56882189 466.70515736 11 466 C9.57120422 459.93215471 8.14756882 453.8631156 6.72753906 447.79321289 C6.24370571 445.72782896 5.7586854 443.66272272 5.27246094 441.59790039 C4.57435936 438.63239337 3.88051239 435.66591862 3.1875 432.69921875 C2.96876221 431.7741301 2.75002441 430.84904144 2.5246582 429.8959198 C2.32445068 429.03525406 2.12424316 428.17458832 1.91796875 427.2878418 C1.74031982 426.53061325 1.5626709 425.7733847 1.37963867 424.99320984 C1 423 1 423 1 420 C0.01 420 -0.98 420 -2 420 C-2.26719849 420.82443604 -2.26719849 420.82443604 -2.53979492 421.66552734 C-3.8156642 425.55393026 -5.13001832 429.41194444 -6.61328125 433.2265625 C-31.48128322 497.26221309 -27.59181191 566.17888915 -0.75292969 628.91503906 C8.7271443 650.35250582 20.92078624 670.31135173 34.9375 689.0625 C35.43403076 689.72741455 35.93056152 690.3923291 36.44213867 691.07739258 C38.94300829 694.39095367 41.50054183 697.62116601 44.20703125 700.76953125 C52.68783186 710.73180505 52.68783186 710.73180505 52.9375 716.5 C52.39523022 720.78181853 50.91096077 723.76559915 48 727 C43.74832195 729.54214917 39.83571573 729.9880283 35 729 C26.94807124 724.62395176 21.41323319 715.20336295 16 708 C15.5472168 707.40654785 15.09443359 706.8130957 14.62792969 706.20166016 C-25.2423898 653.92756067 -49.20352314 590.36977736 -49.25 524.375 C-49.25067474 523.51139862 -49.25134949 522.64779724 -49.25204468 521.75802612 C-49.23419586 507.32167146 -48.48213626 493.24785303 -46 479 C-45.83371094 478.02675781 -45.66742187 477.05351563 -45.49609375 476.05078125 C-41.74191877 454.77712304 -35.63286506 433.81634934 -27 414 C-30.76381862 415.50721148 -32.58463482 417.64916931 -35.0625 420.8125 C-35.84367188 421.79476563 -36.62484375 422.77703125 -37.4296875 423.7890625 C-37.84444336 424.31145508 -38.25919922 424.83384766 -38.68652344 425.37207031 C-40.96238795 428.19278864 -43.33076623 430.93435894 -45.6875 433.6875 C-49.64587309 438.33184504 -53.41606631 443.05998329 -57 448 C-63.50312679 446.08918334 -69.19481825 443.49676535 -75.0625 440.125 C-75.81337891 439.70347656 -76.56425781 439.28195312 -77.33789062 438.84765625 C-82.31333154 436.03526355 -87.17841398 433.06790935 -92 430 C-91.37146903 421.1806131 -89.10045342 412.78860891 -86.9375 404.25 C-86.18993451 401.29849834 -85.45006962 398.34522165 -84.71484375 395.390625 C-84.54299057 394.7228302 -84.37113739 394.0550354 -84.19407654 393.36700439 C-83.31934658 389.84855068 -82.66622345 386.62772109 -83 383 C-84.44013895 380.91669295 -84.44013895 380.91669295 -86.5 379.125 C-87.22703125 378.44179688 -87.9540625 377.75859375 -88.703125 377.0546875 C-91.53177806 374.52429378 -94.36343007 372.00203208 -97.2578125 369.546875 C-99 368 -99 368 -101.125 365.5 C-102.94361261 363.69485437 -102.94361261 363.69485437 -105.62451172 364.2043457 C-109.61152667 365.14414621 -113.14193716 366.58843178 -116.8828125 368.23046875 C-118.39431072 368.87486649 -119.90603631 369.5187311 -121.41796875 370.16210938 C-123.7819877 371.1764929 -126.14365009 372.19563714 -128.50146484 373.22436523 C-130.78959354 374.21939984 -133.08528029 375.19488462 -135.3828125 376.16796875 C-136.08705353 376.48138718 -136.79129456 376.7948056 -137.51687622 377.11772156 C-142.40442448 379.1673734 -142.40442448 379.1673734 -145.33691406 378.34326172 C-147.93112107 376.24794068 -149.74588838 373.65718789 -151.625 370.9375 C-152.04942383 370.32986816 -152.47384766 369.72223633 -152.91113281 369.09619141 C-156.33597863 364.1147117 -159.59755746 359.03268127 -162.75 353.875 C-163.20455566 353.15304443 -163.65911133 352.43108887 -164.12744141 351.68725586 C-165.359375 349.6171875 -165.359375 349.6171875 -167 346 C-163.94563426 337.93025382 -156.11484524 331.0500297 -150.3125 324.75 C-149.84900146 324.24033691 -149.38550293 323.73067383 -148.90795898 323.20556641 C-146.95603139 321.06825632 -144.99661941 318.99689752 -142.86328125 317.0390625 C-140.85853275 315.25473573 -140.85853275 315.25473573 -139 312 C-139.12178926 308.37497847 -140.62179967 305.31729615 -142 302 C-142.92366432 299.5432216 -143.82651038 297.07933314 -144.7277832 294.61425781 C-145.36393045 292.88139984 -146.00821866 291.1515073 -146.66088867 289.42480469 C-147.11298706 288.22452637 -147.11298706 288.22452637 -147.57421875 287 C-147.84838623 286.278125 -148.12255371 285.55625 -148.4050293 284.8125 C-149 283 -149 283 -149 281 C-149.94875 280.96261719 -150.8975 280.92523437 -151.875 280.88671875 C-164.67373515 280.29645087 -177.30729742 278.70379377 -190 277 C-191.39195044 271.16661749 -192.46575503 265.39772298 -193.125 259.4375 C-193.25455078 258.41172852 -193.25455078 258.41172852 -193.38671875 257.36523438 C-194.26289872 249.59782941 -194.07577259 241.80397571 -194 234 C-188.91134119 232.00188722 -183.82099079 230.00817098 -178.72900391 228.01855469 C-176.99610646 227.34073281 -175.26368202 226.66170038 -173.53173828 225.98144531 C-171.04582359 225.00529335 -168.55825434 224.03347167 -166.0703125 223.0625 C-165.29317902 222.75626709 -164.51604553 222.45003418 -163.71536255 222.13452148 C-158.22774341 220 -158.22774341 220 -156 220 C-155.95101562 219.28199219 -155.90203125 218.56398438 -155.8515625 217.82421875 C-155.13163334 207.85692363 -154.08043275 197.93368756 -153 188 C-154.4540625 187.00033203 -154.4540625 187.00033203 -155.9375 185.98046875 C-165.625 179.3203125 -175.3125 172.66015625 -185 166 C-183.62233539 159.09754704 -181.61938968 152.6620349 -179.1875 146.0625 C-178.85685547 145.13759766 -178.52621094 144.21269531 -178.18554688 143.25976562 C-175.87623005 136.93463106 -173.13522091 130.9574858 -170 125 C-160.76038274 125.5510438 -151.67588859 126.66288285 -142.51708984 127.98364258 C-141.14544678 128.1792981 -141.14544678 128.1792981 -139.74609375 128.37890625 C-138.51910767 128.55788452 -138.51910767 128.55788452 -137.26733398 128.74047852 C-134.71801437 129.07581238 -134.71801437 129.07581238 -131 129 C-129.39967281 127.3542906 -129.39967281 127.3542906 -128.125 125.08984375 C-127.61453125 124.26419922 -127.1040625 123.43855469 -126.578125 122.58789062 C-126.05734375 121.71326172 -125.5365625 120.83863281 -125 119.9375 C-124.47921875 119.08994141 -123.9584375 118.24238281 -123.421875 117.36914062 C-122.39838872 115.69563717 -121.39467841 114.00986215 -120.41210938 112.31201172 C-119 110 -119 110 -117.54101562 108.23876953 C-115.99939645 106.44503546 -115.99939645 106.44503546 -115 103 C-116.22000032 98.66955197 -118.31716473 94.91570011 -120.5 91 C-121.056875 89.94554687 -121.61375 88.89109375 -122.1875 87.8046875 C-124.49088729 83.46953878 -126.85925843 79.21969002 -129.46875 75.0625 C-131 72 -131 72 -131.16796875 69.5078125 C-129.32946688 65.56025999 -126.41996137 62.87573117 -123.3125 59.875 C-122.64492676 59.22208984 -121.97735352 58.56917969 -121.28955078 57.89648438 C-116.80623649 53.57882797 -112.20200451 49.4301235 -107.375 45.5 C-106.80821533 45.02546387 -106.24143066 44.55092773 -105.6574707 44.06201172 C-103.30591549 42.2188534 -101.60728077 41.03335629 -98.58203125 40.8671875 C-94.71910186 42.56196741 -91.61637802 45.02859385 -88.3125 47.625 C-86.88454015 48.71409987 -85.45615535 49.8026428 -84.02734375 50.890625 C-81.65113602 52.71787934 -79.29158702 54.56094004 -76.94140625 56.421875 C-76.09449219 57.06640625 -75.24757813 57.7109375 -74.375 58.375 C-73.66085937 58.93960938 -72.94671875 59.50421875 -72.2109375 60.0859375 C-69.97983949 61.24261159 -69.97983949 61.24261159 -67.3671875 60.515625 C-62.67151311 58.40202678 -58.22583165 55.91603411 -53.75 53.375 C-51.955282 52.35816261 -50.15850623 51.34494582 -48.359375 50.3359375 C-47.57014648 49.88782715 -46.78091797 49.4397168 -45.96777344 48.97802734 C-44 48 -44 48 -42 48 C-42.03029297 47.31075439 -42.06058594 46.62150879 -42.09179688 45.91137695 C-43.15694287 21.38639046 -43.15694287 21.38639046 -43 10 C-35.6131809 6.7771873 -28.21070757 4.59591188 -20.375 2.75 C-18.75464844 2.3478125 -18.75464844 2.3478125 -17.1015625 1.9375 C-11.24920247 0.53864321 -6.01605844 -0.320468 0 0 Z " fill="#5A161E" transform="translate(968,611)"/>
<path d="M0 0 C4.72403973 3.76772727 6.42979919 7.73899188 8.375 13.25 C8.97777026 14.87161349 9.5819712 16.49269581 10.1875 18.11328125 C10.48914062 18.93135254 10.79078125 19.74942383 11.1015625 20.59228516 C20.43584395 45.60714485 32.05730487 70.19216172 49 91 C49.4316748 91.53173828 49.86334961 92.06347656 50.30810547 92.61132812 C69.69178569 116.36442153 93.50970607 134.80583568 125 138 C128.39430161 138.18749064 131.79044775 138.3111193 135.1875 138.4375 C163.24566194 139.53151662 189.96373219 148.2704739 212 166 C212.59683594 166.47872559 213.19367188 166.95745117 213.80859375 167.45068359 C231.27189421 181.61423251 244.82874643 198.6360421 254.15039062 219.14160156 C254.94297523 220.87526651 255.7747482 222.59086645 256.609375 224.3046875 C272.78965621 259.08395175 273.39175924 300.5574945 260.92285156 336.50927734 C255.44273435 351.29979476 246.57473212 371.95017859 233 381 C228.49757764 381.58760427 224.31313495 381.50290275 220.0625 379.875 C216.52561046 376.65964587 215.28429496 373.44990429 214.375 368.8125 C215.33665937 362.94637783 218.62557157 358.80207122 222 354 C240.43982096 327.73020481 246.90468603 296.49615283 241.9375 264.8125 C237.18831089 238.62369032 225.14588498 216.27584851 207 197 C206.46117187 196.39671875 205.92234375 195.7934375 205.3671875 195.171875 C188.9670682 177.53556581 163.53258277 166.7890392 139.703125 165.60546875 C97.45387602 163.27424042 65.44246278 149.39767175 36.4375 118.25 C14.00535627 92.49609459 -20.066955 44.36185227 -18.31640625 9.125 C-17.86034065 6.06204091 -17.08800493 4.29680542 -15 2 C-10.30561631 -1.35313121 -5.41040595 -1.95715555 0 0 Z " fill="#5A161E" transform="translate(1031,1090)"/>
<path d="M0 0 C1.35883301 0.40049561 1.35883301 0.40049561 2.74511719 0.80908203 C46.60327857 14.00874525 84.38829481 36.80225757 117.375 68.5 C117.86339355 68.96647949 118.35178711 69.43295898 118.85498047 69.91357422 C125.58916304 76.37630838 131.57185143 83.20162577 137.375 90.5 C138.08011719 91.33789062 138.78523438 92.17578125 139.51171875 93.0390625 C200.89039224 165.98822201 222.48341377 269.14149126 223.90270996 362.34991455 C223.92560274 363.72360204 223.95782073 365.0971711 224.00012207 366.47039795 C224.32995004 378.16044339 224.32995004 378.16044339 220.62109375 382.80859375 C217.37739174 385.86208311 214.94445444 386.5553214 210.5546875 386.703125 C206.12867932 386.29066546 203.41283975 384.71677764 200.5625 381.375 C197.97881849 375.11977108 198.22318213 367.83921839 197.98046875 361.13671875 C197.91449664 359.52966903 197.84764562 357.92265521 197.7800293 356.31567383 C197.72774673 355.06290146 197.72774673 355.06290146 197.67440796 353.78482056 C193.42278062 255.10695007 167.55048275 154.41848454 92.0625 80.375 C61.62231 52.51820857 25.11584992 34.75878731 -14.3425293 23.74121094 C-15.23625244 23.48500977 -16.12997559 23.22880859 -17.05078125 22.96484375 C-17.86458252 22.73531006 -18.67838379 22.50577637 -19.5168457 22.26928711 C-22.83840748 21.05721517 -24.05529534 19.63940932 -25.625 16.5 C-26.7960787 12.03835509 -26.97896856 8.60354905 -25.5625 4.1875 C-18.74348953 -5.27112743 -9.7142053 -2.9216348 0 0 Z " fill="#5A161E" transform="translate(982.625,1366.5)"/>
<path d="M0 0 C1.13791992 0.35602295 2.27583984 0.7120459 3.44824219 1.07885742 C14.19556069 4.52584125 24.47950983 8.70074965 34.6875 13.5 C36.04053223 14.13228516 36.04053223 14.13228516 37.42089844 14.77734375 C63.47691644 27.07118773 87.06678149 42.97545903 108.35546875 62.38671875 C110.43784736 64.27376537 112.55253064 66.11058233 114.6875 67.9375 C122.26277406 74.54864827 129.24659999 81.78589882 135.6875 89.5 C136.12900391 90.02239258 136.57050781 90.54478516 137.02539062 91.08300781 C151.05603473 107.734054 163.25895697 125.38654565 173.6875 144.5 C174.17460449 145.38526367 174.66170898 146.27052734 175.16357422 147.18261719 C211.54179213 213.67540868 225.81313533 290.82015041 227.0625 366.0625 C227.08860352 366.94260742 227.11470703 367.82271484 227.14160156 368.72949219 C227.15663244 374.14275614 226.31709262 377.22367997 222.6875 381.5 C219.26765724 383.90943467 216.73614944 384.74719111 212.625 384.4375 C208.75518365 383.74936822 206.42351081 382.39695262 203.6875 379.5 C201.47786199 375.22757632 201.32482663 371.05817792 201.1953125 366.34375 C201.1322127 364.68325076 201.0686334 363.02276968 201.00463867 361.36230469 C200.95851944 360.0524762 200.95851944 360.0524762 200.91146851 358.71618652 C197.74404029 271.7862509 177.75671573 182.84848837 122.6875 113.5 C122.24180664 112.93716309 121.79611328 112.37432617 121.33691406 111.79443359 C108.12409978 95.31482137 92.83507818 79.85786771 75.6875 67.5 C74.59912639 66.68380167 73.51189856 65.8660734 72.42578125 65.046875 C44.29824229 44.08934341 11.51364712 28.69156058 -22.82006836 21.29931641 C-26.27192551 20.19231471 -28.29147781 18.52289732 -30.375 15.58984375 C-32.19956539 11.5225834 -32.36758563 7.80999032 -31.3125 3.5 C-24.10041956 -8.92454979 -11.36076647 -3.57940791 0 0 Z " fill="#5A161E" transform="translate(1362.3125,1368.5)"/>
<path d="M0 0 C0.6614502 0.24202148 1.32290039 0.48404297 2.00439453 0.73339844 C28.57334652 10.66082123 52.38640186 26.11226335 75 43 C75.60569824 43.45117188 76.21139648 43.90234375 76.83544922 44.3671875 C84.0726339 49.78123328 91.03385523 55.48417786 97.89453125 61.36328125 C100.65252903 63.72110229 103.47446369 65.98890381 106.3125 68.25 C111.77900134 72.69353033 116.88760347 77.48302453 121.99145508 82.33300781 C125.49232534 85.65970321 129.03042848 88.92522975 132.64453125 92.12890625 C138.57914277 97.44967076 144.22865704 103.04256455 149.86279297 108.67749023 C151.65184765 110.46431417 153.44882243 112.24292957 155.24609375 114.02148438 C156.38590303 115.15836676 157.52524433 116.29571857 158.6640625 117.43359375 C159.20141022 117.96375595 159.73875793 118.49391815 160.29238892 119.04014587 C164 122.77111927 164 122.77111927 164 125 C152.26107986 127.36922498 137.38398638 129.97891249 126.55072021 123.54547119 C116.51246632 116.19432838 108.14119665 106.48473651 100.19621277 96.97639465 C96.15819819 92.14526572 91.81177364 88.05177286 87 84 C85.28732679 82.42136208 83.57852976 80.83850042 81.875 79.25 C76.13823647 74.02474488 70.11195153 69.26015197 63.96582031 64.52880859 C61.88491983 62.91050273 59.82819013 61.26463827 57.7734375 59.61328125 C32.96430238 39.78189757 2.54122182 19.55040055 -30 17 C-30.73347656 16.93039062 -31.46695312 16.86078125 -32.22265625 16.7890625 C-47.12586588 16.06479437 -62.9943368 21.08722195 -74.390625 30.734375 C-99.71635892 53.92786689 -106.78929896 92.38603676 -110 125 C-112.85423192 125.02718316 -115.70820015 125.04692705 -118.5625 125.0625 C-119.36236328 125.07087891 -120.16222656 125.07925781 -120.98632812 125.08789062 C-125.77163104 125.10742247 -130.28145051 124.80437018 -135 124 C-133.95424046 84.5748653 -122.23456251 42.51428675 -94.53515625 13.41015625 C-67.84979015 -11.89120383 -32.73755925 -12.0148217 0 0 Z " fill="#5A161E" transform="translate(1376,1628)"/>
</svg>
