<?xml version="1.0" standalone="no"?>
<!DOCTYPE svg PUBLIC "-//W3C//DTD SVG 20010904//EN"
 "http://www.w3.org/TR/2001/REC-SVG-20010904/DTD/svg10.dtd">
<svg version="1.0" xmlns="http://www.w3.org/2000/svg"
 width="2363.000000pt" height="2364.000000pt" viewBox="0 0 2363.000000 2364.000000"
 preserveAspectRatio="xMidYMid meet">

<g transform="translate(0.000000,2364.000000) scale(0.100000,-0.100000)"
fill="#000000" stroke="none">
<path d="M9530 17505 c-58 -13 -142 -35 -187 -49 l-83 -27 -2 -191 -3 -191
-134 -74 -134 -73 -149 110 -150 111 -51 -39 c-68 -51 -196 -167 -235 -212
l-30 -35 87 -173 87 -172 -88 -133 -89 -134 -87 13 c-48 7 -134 19 -191 27
l-104 14 -30 -66 c-42 -94 -104 -261 -111 -301 l-7 -35 161 -110 c138 -94 160
-113 159 -135 0 -14 -8 -87 -17 -164 l-17 -139 -185 -69 c-102 -39 -188 -73
-192 -77 -9 -8 7 -240 23 -338 14 -85 -14 -73 248 -103 95 -10 174 -20 176
-22 7 -9 105 -286 105 -296 0 -7 -63 -85 -140 -173 -77 -88 -140 -164 -140
-168 0 -13 122 -211 168 -273 23 -32 47 -58 53 -58 5 0 96 36 201 80 222 93
183 98 331 -43 l99 -93 -51 -209 c-28 -116 -54 -217 -56 -225 -3 -11 21 -31
78 -67 96 -60 244 -136 257 -131 5 2 72 81 150 176 78 94 146 172 150 172 20
0 19 -21 -1 -72 -358 -893 -242 -1859 324 -2708 126 -189 263 -354 314 -378
76 -36 170 38 160 125 -4 34 -17 58 -63 114 -373 449 -602 946 -681 1479 -21
141 -23 481 -4 620 29 218 117 540 190 703 40 86 49 69 106 -188 27 -121 52
-224 56 -229 7 -8 366 -12 375 -4 5 5 102 430 114 498 14 85 -12 211 -62 299
-23 41 -23 41 -68 34 -80 -13 -311 -7 -406 10 -587 105 -1042 561 -1176 1180
-30 138 -33 454 -5 592 77 380 286 715 587 941 312 235 752 329 1130 240 556
-129 986 -579 1105 -1155 87 -420 -17 -896 -269 -1232 -120 -159 -305 -322
-478 -418 l-57 -32 -29 58 c-65 129 -187 256 -299 313 -41 21 -62 25 -143 25
-88 0 -101 -3 -162 -33 -43 -21 -83 -51 -115 -86 -55 -61 -176 -257 -165 -267
12 -12 170 -39 228 -39 53 0 54 0 88 51 19 29 47 60 63 70 33 22 93 24 132 5
35 -19 101 -91 134 -147 63 -108 95 -302 78 -468 -9 -82 -8 -108 3 -135 29
-69 106 -101 171 -70 49 23 67 53 79 136 l11 71 104 -127 c57 -69 108 -126
114 -126 14 0 199 98 270 144 31 20 57 42 57 49 0 7 -25 109 -55 227 -41 165
-51 217 -42 226 7 5 60 54 119 108 l106 97 195 -81 c107 -44 200 -80 206 -80
12 0 130 173 184 270 l35 65 -110 125 c-60 69 -125 143 -144 166 l-34 41 53
147 c30 80 56 148 59 151 3 4 94 16 202 29 108 12 201 27 206 32 11 12 40 258
40 344 l0 65 -186 69 c-102 39 -187 74 -190 78 -3 5 -13 78 -23 164 l-17 156
100 71 c56 39 129 90 163 114 l62 44 -16 52 c-18 62 -74 210 -110 289 -21 48
-29 57 -47 53 -34 -8 -318 -45 -342 -45 -17 0 -41 29 -109 131 l-86 131 77
152 c42 83 81 155 85 161 5 5 9 16 9 26 0 19 -130 146 -237 233 l-73 58 -150
-111 -150 -111 -141 77 -142 77 8 187 7 188 -84 25 c-89 27 -227 60 -294 71
l-40 6 -79 -165 -78 -166 -159 0 -159 0 -79 165 c-60 126 -83 165 -97 164 -10
0 -65 -11 -123 -24z"/>
<path d="M10189 12725 c-37 -20 -63 -78 -55 -125 3 -21 27 -94 52 -161 238
-635 585 -1069 994 -1244 146 -63 247 -84 451 -95 92 -5 192 -17 240 -29 433
-102 780 -494 866 -975 21 -121 21 -325 -1 -439 -34 -175 -102 -333 -208 -479
-47 -66 -58 -88 -58 -120 0 -102 93 -159 177 -109 70 43 221 302 277 476 163
506 41 1069 -321 1482 -113 129 -303 266 -468 337 -134 58 -258 86 -430 97
-82 6 -188 17 -234 25 -437 77 -823 511 -1077 1209 -50 137 -73 165 -139 165
-22 -1 -52 -7 -66 -15z"/>
<path d="M9609 9962 c-55 -49 -48 -160 13 -193 12 -6 69 -24 128 -39 301 -79
609 -236 867 -440 740 -588 1150 -1580 1199 -2900 7 -192 17 -231 65 -255 63
-33 135 -10 164 52 17 35 17 53 7 273 -63 1244 -402 2159 -1037 2796 -82 83
-188 181 -235 218 -274 216 -608 390 -924 481 -151 44 -204 45 -247 7z"/>
<path d="M13372 9977 c-55 -31 -75 -123 -38 -178 20 -32 31 -36 196 -82 481
-134 930 -426 1274 -828 173 -201 292 -387 422 -654 256 -527 386 -1114 420
-1900 l6 -149 33 -33 c28 -28 40 -33 78 -33 55 0 102 34 115 83 4 18 5 118 1
222 -43 1104 -367 2021 -941 2666 -359 402 -840 709 -1351 863 -124 38 -177
43 -215 23z"/>
<path d="M13165 7410 c-179 -47 -318 -143 -436 -302 -112 -151 -188 -320 -245
-543 -36 -145 -64 -315 -64 -393 l0 -50 113 -4 c61 -2 113 -4 114 -3 2 1 10
55 18 121 21 159 67 346 115 466 109 273 259 423 476 478 387 99 906 -183
1615 -877 l196 -193 99 1 c55 1 128 4 163 8 l64 6 -209 205 c-641 628 -1222
1009 -1660 1085 -118 21 -271 19 -359 -5z"/>
</g>
</svg>
