<svg width="50" height="50" viewBox="0 0 50 50" fill="none" xmlns="http://www.w3.org/2000/svg">
<path fill-rule="evenodd" clip-rule="evenodd" d="M3 11.5C3 5.12449 3.06827 3 11.5 3C19.9317 3 20 5.12449 20 11.5C20 17.8755 20.027 20 11.5 20C2.97312 20 3 17.8755 3 11.5Z" stroke="#FF5858" stroke-width="5" stroke-linecap="round" stroke-linejoin="round"/>
<path opacity="0.4" fill-rule="evenodd" clip-rule="evenodd" d="M30 11.5C30 5.12449 30.0682 3 38.5 3C46.9318 3 47 5.12449 47 11.5C47 17.8755 47.027 20 38.5 20C29.973 20 30 17.8755 30 11.5Z" stroke="#FF5858" stroke-width="5" stroke-linecap="round" stroke-linejoin="round"/>
<path fill-rule="evenodd" clip-rule="evenodd" d="M3 38.5C3 32.1245 3.06827 30 11.5 30C19.9317 30 20 32.1245 20 38.5C20 44.8755 20.027 47 11.5 47C2.97312 47 3 44.8755 3 38.5Z" stroke="#FF5858" stroke-width="5" stroke-linecap="round" stroke-linejoin="round"/>
<path fill-rule="evenodd" clip-rule="evenodd" d="M30 38.5C30 32.1245 30.0682 30 38.5 30C46.9318 30 47 32.1245 47 38.5C47 44.8755 47.027 47 38.5 47C29.973 47 30 44.8755 30 38.5Z" stroke="#FF5858" stroke-width="5" stroke-linecap="round" stroke-linejoin="round"/>
</svg>
