<?xml version="1.0" standalone="no"?>
<!DOCTYPE svg PUBLIC "-//W3C//DTD SVG 20010904//EN"
 "http://www.w3.org/TR/2001/REC-SVG-20010904/DTD/svg10.dtd">
<svg version="1.0" xmlns="http://www.w3.org/2000/svg"
 width="1000.000000pt" height="1000.000000pt" viewBox="0 0 1000.000000 1000.000000"
 preserveAspectRatio="xMidYMid meet">

<g transform="translate(0.000000,1000.000000) scale(0.100000,-0.100000)"
fill="#000000" stroke="none">
<path d="M1772 8350 c-245 -64 -439 -265 -498 -517 -24 -102 -14 -273 21 -376
145 -420 648 -596 1025 -360 294 185 404 573 251 887 -90 184 -252 316 -449
367 -100 25 -250 25 -350 -1z"/>
<path d="M2145 6935 c-44 -12 -96 -29 -115 -36 l-35 -14 73 -6 c96 -9 166 -44
231 -114 70 -77 94 -146 89 -250 -5 -94 10 -60 -282 -608 -108 -202 -196 -374
-196 -381 0 -32 216 -720 246 -783 43 -90 128 -184 197 -218 64 -31 159 -42
223 -26 65 17 292 109 954 386 311 131 573 240 582 242 11 3 226 -131 604
-377 322 -210 607 -392 633 -404 36 -17 65 -21 136 -21 79 1 97 4 148 30 68
34 140 107 170 173 18 38 22 66 22 142 0 83 -3 102 -27 150 -15 30 -46 74 -70
96 -48 47 -1345 894 -1423 930 -71 33 -147 40 -220 20 -33 -8 -249 -94 -480
-190 -231 -96 -423 -172 -426 -168 -3 4 -75 250 -158 547 -103 363 -163 560
-184 600 -68 129 -206 240 -351 284 -96 29 -233 28 -341 -4z"/>
<path d="M1932 6754 c-28 -14 -62 -38 -75 -54 -14 -16 -88 -149 -167 -297 -78
-147 -320 -602 -537 -1011 -375 -705 -396 -746 -400 -805 -9 -112 54 -211 161
-252 93 -36 221 0 279 78 24 31 1027 1912 1074 2012 46 100 25 212 -53 287
-77 74 -186 90 -282 42z"/>
<path d="M4303 6124 c-3 -8 1 -21 8 -28 23 -21 1118 -596 1135 -596 10 0 14 7
12 22 -2 19 -99 74 -563 320 -308 163 -566 297 -573 297 -7 1 -15 -6 -19 -15z"/>
<path d="M8395 5775 c-265 -58 -469 -258 -536 -525 -39 -152 -11 -381 60 -496
15 -24 85 -66 347 -203 l328 -173 69 11 c326 54 569 329 584 661 6 137 -12
226 -73 350 -39 80 -61 109 -133 181 -142 141 -307 209 -501 208 -47 0 -112
-7 -145 -14z"/>
<path d="M6410 5341 c-78 -25 -148 -90 -171 -157 -22 -66 -16 -143 16 -202 16
-29 42 -63 59 -75 52 -39 2198 -1164 2244 -1177 94 -25 212 25 267 114 27 45
30 58 30 130 -1 91 -13 124 -69 178 -22 21 -448 250 -1135 611 -1029 541
-1105 579 -1158 583 -32 2 -69 0 -83 -5z"/>
<path d="M4083 4624 c-3 -8 1 -21 8 -28 31 -29 1122 -597 1136 -592 44 17 -11
50 -552 338 -308 163 -566 297 -573 297 -7 1 -15 -6 -19 -15z"/>
<path d="M4493 4623 c-4 -11 1 -22 17 -32 73 -49 1115 -591 1127 -587 44 17
-10 50 -552 338 -308 163 -566 297 -573 298 -7 0 -16 -8 -19 -17z"/>
<path d="M2808 4480 c-92 -38 -193 -74 -225 -80 -74 -16 -170 -6 -247 25 -33
13 -61 23 -63 22 -1 -2 65 -192 147 -424 139 -394 148 -423 139 -464 -32 -161
-269 -1555 -269 -1582 0 -40 26 -131 48 -166 118 -193 368 -232 540 -86 88 76
86 68 253 1020 112 645 149 874 146 915 -3 37 -54 194 -151 469 -80 228 -147
415 -148 416 -2 2 -78 -28 -170 -65z"/>
<path d="M7678 3963 c-24 -43 -147 -264 -273 -492 -127 -227 -235 -416 -242
-418 -7 -3 -254 61 -550 142 -511 140 -541 147 -609 143 -51 -4 -88 -13 -126
-31 -33 -17 -287 -225 -687 -564 -602 -510 -636 -541 -670 -603 -34 -62 -36
-70 -36 -160 0 -82 4 -103 26 -151 33 -69 91 -129 161 -166 48 -25 63 -28 154
-28 92 0 105 2 157 30 35 18 268 208 594 485 315 267 543 454 552 452 43 -10
1392 -386 1496 -418 154 -47 263 -52 338 -16 136 68 269 259 628 903 269 483
289 526 289 630 l0 48 -32 -30 c-47 -43 -117 -77 -182 -87 -112 -18 -140 -8
-545 206 -206 108 -380 198 -387 200 -7 2 -32 -32 -56 -75z"/>
<path d="M160 2286 c0 -24 5 -36 14 -36 8 0 20 -2 28 -5 8 -3 18 6 25 26 14
37 38 34 38 -4 -1 -15 3 -27 7 -27 16 0 21 31 9 56 -15 33 -51 29 -69 -9 -14
-29 -32 -28 -32 3 0 10 -4 22 -10 25 -6 4 -10 -8 -10 -29z"/>
<path d="M177 2202 c-22 -24 -21 -35 1 -55 25 -22 75 -21 95 1 23 25 21 38 -5
56 -30 21 -71 20 -91 -2z m77 -8 c24 -9 19 -33 -8 -40 -31 -7 -66 3 -66 21 0
21 41 32 74 19z"/>
<path d="M270 2085 l0 -25 -20 20 c-11 11 -33 20 -50 20 -23 0 -31 -5 -36 -24
-6 -25 1 -46 15 -46 4 0 7 10 7 23 -1 32 34 34 64 2 32 -34 40 -32 40 15 0 22
-4 40 -10 40 -5 0 -10 -11 -10 -25z"/>
<path d="M160 1981 c0 -22 5 -43 10 -46 6 -4 10 7 10 24 0 17 2 31 4 31 2 0
25 -9 51 -20 53 -23 55 -23 55 -11 0 7 -108 61 -124 61 -3 0 -6 -18 -6 -39z"/>
<path d="M177 1902 c-22 -24 -21 -35 1 -55 36 -33 112 -13 112 28 0 20 -40 45
-71 45 -14 0 -33 -8 -42 -18z m77 -8 c24 -9 19 -33 -8 -40 -31 -7 -66 3 -66
21 0 21 41 32 74 19z"/>
<path d="M160 1775 c0 -25 5 -45 10 -45 6 0 10 14 10 31 0 27 3 30 23 23 12
-3 34 -13 49 -20 31 -16 38 -17 38 -5 0 7 -108 61 -124 61 -3 0 -6 -20 -6 -45z"/>
<path d="M226 1711 c-3 -4 -17 -6 -30 -4 -20 4 -26 0 -31 -20 -7 -26 0 -47 14
-47 5 0 6 11 3 25 -3 18 0 25 12 25 9 0 16 -7 16 -15 0 -22 17 -18 23 6 8 29
32 18 32 -14 -1 -30 12 -36 22 -11 14 37 -41 87 -61 55z"/>
<path d="M160 1602 c0 -5 7 -17 15 -28 13 -17 14 -17 15 -1 0 14 9 17 50 17
28 0 50 5 50 10 0 6 -28 10 -65 10 -36 0 -65 -4 -65 -8z"/>
<path d="M226 1541 c-3 -4 -17 -6 -30 -4 -20 4 -26 0 -31 -20 -7 -26 0 -47 14
-47 5 0 6 11 3 25 -3 18 0 25 12 25 9 0 16 -7 16 -15 0 -22 17 -18 23 6 8 29
32 18 32 -14 -1 -30 12 -36 22 -11 14 37 -41 87 -61 55z"/>
<path d="M196 1451 c-4 -6 -12 -9 -17 -6 -5 4 -9 2 -9 -4 0 -5 6 -12 13 -15 9
-5 9 -7 0 -12 -10 -4 -9 -9 2 -20 8 -9 20 -12 26 -8 6 3 14 1 18 -5 5 -8 15
-9 31 -3 19 7 21 10 7 15 -23 9 -22 28 1 20 12 -4 11 0 -7 17 -17 17 -25 20
-31 10 -6 -9 -10 -8 -17 5 -7 12 -12 14 -17 6z m39 -41 c-3 -5 -10 -10 -16
-10 -5 0 -9 5 -9 10 0 6 7 10 16 10 8 0 12 -4 9 -10z"/>
<path d="M140 1280 c0 -6 38 -10 95 -10 57 0 95 4 95 10 0 6 -38 10 -95 10
-57 0 -95 -4 -95 -10z"/>
<path d="M261 1189 c-22 -18 -25 -19 -42 -3 -11 10 -22 14 -27 10 -4 -4 4 -16
17 -27 l23 -19 -46 0 c-34 0 -46 -4 -46 -15 0 -12 15 -15 75 -15 60 0 75 3 75
15 0 9 -9 15 -22 15 l-23 0 24 19 c13 10 22 23 20 29 -2 6 -14 3 -28 -9z"/>
<path d="M190 1081 c0 -27 27 -51 55 -51 24 0 45 25 45 54 0 25 -18 19 -22 -6
-2 -17 -10 -23 -28 -23 -18 0 -26 6 -28 23 -4 27 -22 30 -22 3z"/>
<path d="M206 994 c-19 -18 -20 -28 -6 -55 21 -39 90 -16 90 30 0 16 -30 41
-50 41 -10 0 -26 -7 -34 -16z m59 -29 c0 -22 -31 -33 -47 -17 -17 17 -1 44 24
40 15 -2 23 -10 23 -23z"/>
<path d="M190 900 c0 -5 -7 -10 -15 -10 -8 0 -15 -4 -15 -10 0 -5 6 -10 14
-10 8 0 17 -6 20 -12 5 -10 7 -10 12 0 3 6 21 12 40 12 34 0 56 22 39 38 -4 4
-10 1 -12 -5 -5 -15 -63 -18 -63 -3 0 6 -4 10 -10 10 -5 0 -10 -4 -10 -10z"/>
<path d="M212 810 c-19 -34 -35 -34 -40 -2 -5 30 -22 28 -22 -2 0 -50 54 -61
77 -16 17 34 38 32 38 -3 -1 -32 18 -31 23 2 8 53 -49 69 -76 21z"/>
<path d="M200 675 c-22 -26 3 -65 40 -65 35 0 58 36 45 67 -7 16 -9 15 -13 -7
-6 -40 -22 -48 -22 -12 0 25 -4 32 -19 32 -10 0 -24 -7 -31 -15z m30 -26 c0
-11 -4 -17 -10 -14 -5 3 -10 13 -10 21 0 8 5 14 10 14 6 0 10 -9 10 -21z"/>
<path d="M197 561 c-8 -22 -18 -31 -34 -31 -14 0 -23 -6 -23 -15 0 -23 138
-22 147 2 10 26 -19 68 -50 71 -24 3 -30 -2 -40 -27z m57 3 c28 -11 18 -34
-14 -34 -18 0 -30 5 -30 13 0 25 15 32 44 21z"/>
<path d="M206 464 c-19 -18 -20 -28 -6 -55 21 -39 90 -16 90 30 0 16 -30 41
-50 41 -10 0 -26 -7 -34 -16z m59 -29 c0 -22 -31 -33 -47 -17 -17 17 -1 44 24
40 15 -2 23 -10 23 -23z"/>
<path d="M140 350 c0 -5 11 -10 25 -10 15 0 25 -6 25 -14 0 -45 73 -62 92 -22
20 45 6 56 -72 56 -40 0 -70 -4 -70 -10z m128 -27 c-2 -12 -12 -18 -28 -18
-16 0 -26 6 -28 18 -3 13 3 17 28 17 25 0 31 -4 28 -17z"/>
<path d="M220 246 c-36 -13 -66 -29 -68 -37 -1 -9 20 -21 68 -35 38 -12 70
-17 70 -12 0 6 -9 12 -20 15 -14 4 -20 14 -20 34 0 22 5 29 20 29 11 0 20 7
20 15 0 8 -1 15 -2 14 -2 0 -32 -11 -68 -23z m8 -51 c-7 -7 -48 7 -48 15 0 15
45 16 48 2 2 -8 2 -15 0 -17z"/>
</g>
</svg>
