<svg width="392" height="362" viewBox="0 0 392 362" fill="none" xmlns="http://www.w3.org/2000/svg">
<g clip-path="url(#clip0_153_13)">
<path d="M392 0H0V362H392V0Z" fill="#EDE1D1"/>
<g clip-path="url(#clip1_153_13)">
<g clip-path="url(#clip2_153_13)">
<g clip-path="url(#clip3_153_13)">
<path d="M281.243 184.726H110.328C109.365 184.726 108.584 185.511 108.584 186.479V189.343C108.584 190.311 109.365 191.096 110.328 191.096H281.243C282.206 191.096 282.987 190.311 282.987 189.343V186.479C282.987 185.511 282.206 184.726 281.243 184.726Z" fill="#6A704C"/>
<g clip-path="url(#clip4_153_13)">
<g clip-path="url(#clip5_153_13)">
<g clip-path="url(#clip6_153_13)">
<g clip-path="url(#clip7_153_13)">
<path d="M140.822 278.401C134.442 278.401 128.842 277.048 124.022 274.341C119.201 271.634 115.501 267.801 112.92 262.843C110.326 257.899 109.029 252.079 109.029 245.383C109.029 238.259 110.624 231.827 113.814 226.085C117.004 220.358 121.42 215.87 127.063 212.621C132.691 209.387 139.05 207.77 146.139 207.77C148.762 207.77 151.441 207.962 154.178 208.347C156.9 208.746 159.204 209.138 161.089 209.522C162.961 209.921 164.145 210.192 164.641 210.335L165.066 210.976C164.924 211.403 164.697 212.436 164.386 214.074C164.059 215.713 163.705 217.85 163.322 220.486C162.925 223.122 162.62 225.9 162.408 228.82L157.304 229.248C157.375 228.892 157.446 228.229 157.516 227.26C157.587 226.306 157.623 225.223 157.623 224.012C157.623 217.387 152.412 214.074 141.992 214.074C137.313 214.074 133.202 215.214 129.657 217.494C126.113 219.773 123.384 222.993 121.47 227.154C119.556 231.328 118.599 236.229 118.599 241.857C118.599 248.054 119.612 253.504 121.64 258.206C123.653 262.907 126.503 266.555 130.189 269.148C133.875 271.755 138.128 273.058 142.949 273.058C147.769 273.058 151.654 271.684 154.603 268.934C157.538 266.198 159.679 261.946 161.025 256.175L166.129 255.748C165.917 256.817 165.456 259.182 164.747 262.843C164.038 266.519 163.542 269.96 163.258 273.165L162.62 274.127C162.62 274.198 161.543 274.604 159.388 275.345C157.219 276.1 154.525 276.798 151.307 277.44C148.074 278.081 144.579 278.401 140.822 278.401ZM184.631 277.546L185.482 272.952C189.026 272.667 191.472 272.218 192.819 271.605C194.166 271.007 195.052 269.903 195.477 268.293C195.903 266.697 196.115 263.869 196.115 259.808V213.22C190.09 213.433 185.992 213.768 183.823 214.224C181.668 214.694 180.201 215.727 179.421 217.323C178.641 218.933 177.932 222.053 177.294 226.683L172.297 227.111C173.147 220.343 173.679 214.181 173.892 208.625L174.849 207.77L183.674 208.945H216.638L225.676 207.77L226.633 208.625C226.846 214.466 227.377 220.486 228.228 226.683L223.23 227.111C222.45 222.409 221.671 219.239 220.891 217.601C220.111 215.962 218.729 214.894 216.744 214.395C214.759 213.896 210.931 213.505 205.26 213.22C204.835 217.494 204.445 225.045 204.09 235.873C203.736 246.701 203.559 256.46 203.559 265.151C203.559 267.787 204.019 269.653 204.941 270.75C205.863 271.862 207.422 272.417 209.62 272.417C211.746 272.417 213.696 272.311 215.468 272.097L215.787 272.524L214.83 277.44L211.321 277.333L199.199 277.119C195.3 277.119 190.444 277.261 184.631 277.546ZM235.544 278.401L236.203 273.486C239.45 272.845 241.64 271.897 242.774 270.644C243.908 269.404 244.476 267.288 244.476 264.296L244.603 219.417C244.603 217.138 244.334 215.606 243.795 214.822C243.271 214.039 242.221 213.647 240.648 213.647C239.939 213.647 239.23 213.683 238.521 213.754C237.812 213.825 237.323 213.861 237.054 213.861L236.82 213.433L237.585 208.732C238.493 208.803 240.35 208.874 243.157 208.945C245.964 209.017 249.027 209.052 252.344 209.052C266.324 209.052 276.283 208.625 282.224 207.77L282.543 208.411C282.486 208.839 282.295 209.836 281.969 211.403C281.643 212.97 281.302 215.143 280.948 217.921C280.593 220.699 280.31 223.549 280.097 226.47L275.014 226.897C275.014 226.541 275.043 225.864 275.1 224.867C275.17 223.87 275.206 222.908 275.206 221.982C275.206 219.488 274.908 217.757 274.313 216.789C273.717 215.834 272.498 215.193 270.655 214.865C268.798 214.552 265.565 214.395 260.957 214.395C258.476 214.395 256.782 214.466 255.875 214.609C254.939 214.751 254.329 215.086 254.046 215.613C253.776 216.155 253.599 217.138 253.514 218.562L252.685 241.109L263.616 241.216C264.962 241.216 266.954 241.052 269.591 240.724C272.2 240.411 273.93 240.183 274.781 240.04L275.206 240.575L273.717 246.986C272.81 246.915 271.094 246.843 268.571 246.772C266.061 246.701 263.424 246.665 260.66 246.665C258.022 246.665 255.286 246.915 252.451 247.413L252.047 265.151C252.047 268.072 252.358 270.01 252.982 270.964C253.62 271.933 254.861 272.417 256.704 272.417C258.122 272.417 259.596 272.367 261.127 272.268C262.644 272.154 263.694 272.097 264.275 272.097L264.466 272.524L263.509 277.546C262.375 277.475 260.27 277.39 257.193 277.29C254.116 277.176 250.941 277.119 247.666 277.119C245.468 277.119 243.093 277.297 240.541 277.653C238.003 278.009 236.338 278.259 235.544 278.401Z" fill="#6A704C"/>
</g>
</g>
<g clip-path="url(#clip8_153_13)">
<g clip-path="url(#clip9_153_13)">
<path d="M142.169 299.601V295.529H144.653V295.989H142.668V297.291H144.51V297.739H142.668V299.601H142.169ZM145.288 299.601V295.129L145.764 295.076V299.601H145.288ZM148.283 298.903V298.222C148.204 298.226 148.128 298.23 148.057 298.234C147.986 298.238 147.915 298.243 147.846 298.248C147.777 298.255 147.714 298.262 147.659 298.27C147.374 298.306 147.172 298.368 147.053 298.457C146.934 298.547 146.875 298.676 146.875 298.843C146.875 298.982 146.917 299.087 147.002 299.156C147.087 299.226 147.199 299.261 147.338 299.261C147.528 299.261 147.697 299.228 147.846 299.162C147.994 299.097 148.14 299.01 148.283 298.903ZM148.336 299.649L148.277 299.321C148.091 299.428 147.917 299.515 147.756 299.58C147.596 299.646 147.423 299.679 147.237 299.679C146.972 299.679 146.761 299.614 146.604 299.484C146.448 299.355 146.37 299.142 146.37 298.843C146.37 298.688 146.409 298.553 146.488 298.437C146.568 298.322 146.671 298.225 146.8 298.147C146.929 298.07 147.075 298.009 147.237 297.965C147.399 297.922 147.566 297.894 147.736 297.882C147.807 297.874 147.901 297.867 148.015 297.86C148.13 297.855 148.219 297.85 148.283 297.846C148.283 297.707 148.279 297.583 148.271 297.473C148.263 297.364 148.239 297.27 148.2 297.192C148.16 297.114 148.101 297.056 148.024 297.016C147.947 296.976 147.837 296.956 147.695 296.956C147.58 296.956 147.469 296.963 147.362 296.977C147.255 296.991 147.16 297.006 147.077 297.022C146.978 297.042 146.887 297.064 146.803 297.088L146.708 296.676C146.807 296.652 146.914 296.63 147.029 296.61C147.128 296.59 147.243 296.573 147.374 296.559C147.504 296.545 147.645 296.538 147.796 296.538C147.998 296.538 148.161 296.568 148.285 296.628C148.41 296.688 148.507 296.768 148.576 296.869C148.646 296.971 148.694 297.087 148.719 297.216C148.745 297.345 148.758 297.482 148.758 297.625V299.058C148.758 299.114 148.759 299.172 148.761 299.234C148.763 299.296 148.767 299.357 148.772 299.416C148.779 299.476 148.786 299.538 148.794 299.601L148.336 299.649ZM151.936 296.67V299.888C151.936 300.035 151.92 300.179 151.888 300.318C151.856 300.457 151.796 300.582 151.708 300.692C151.618 300.801 151.493 300.888 151.333 300.954C151.172 301.02 150.961 301.052 150.7 301.052C150.533 301.048 150.389 301.038 150.266 301.022C150.143 301.007 150.026 300.984 149.916 300.954C149.805 300.924 149.704 300.889 149.613 300.849L149.737 300.431C149.892 300.499 150.049 300.551 150.21 300.587C150.37 300.622 150.514 300.64 150.64 300.64C150.779 300.64 150.9 300.626 151.003 300.599C151.106 300.571 151.192 300.524 151.262 300.459C151.331 300.393 151.382 300.306 151.416 300.199C151.45 300.091 151.466 299.958 151.466 299.798V299.363C151.383 299.418 151.297 299.469 151.208 299.514C151.119 299.56 151.024 299.599 150.923 299.631C150.822 299.663 150.724 299.679 150.629 299.679C150.26 299.679 149.969 299.548 149.755 299.287C149.541 299.027 149.434 298.638 149.434 298.121C149.434 297.822 149.481 297.572 149.574 297.371C149.667 297.17 149.785 297.008 149.927 296.885C150.07 296.761 150.226 296.673 150.397 296.618C150.567 296.565 150.73 296.538 150.884 296.538C151.086 296.538 151.271 296.555 151.44 296.589C151.608 296.623 151.773 296.65 151.936 296.67ZM150.682 299.261C150.769 299.261 150.858 299.245 150.949 299.213C151.04 299.181 151.129 299.144 151.214 299.1C151.299 299.056 151.383 299.004 151.466 298.945V297.04C151.419 297.028 151.363 297.014 151.3 296.998C151.244 296.99 151.181 296.981 151.11 296.971C151.038 296.961 150.963 296.956 150.884 296.956C150.718 296.956 150.575 296.986 150.456 297.046C150.337 297.106 150.24 297.187 150.163 297.291C150.085 297.394 150.028 297.516 149.993 297.655C149.957 297.794 149.939 297.942 149.939 298.097C149.939 298.236 149.954 298.375 149.984 298.515C150.014 298.654 150.06 298.779 150.123 298.891C150.187 299.002 150.264 299.092 150.355 299.16C150.446 299.227 150.555 299.261 150.682 299.261ZM155.75 295.661L155.643 296.103C155.544 296.071 155.439 296.042 155.328 296.015C155.217 295.99 155.096 295.968 154.963 295.95C154.83 295.932 154.691 295.923 154.544 295.923C154.306 295.923 154.104 295.975 153.938 296.079C153.772 296.182 153.636 296.314 153.532 296.475C153.426 296.637 153.35 296.817 153.302 297.016C153.255 297.215 153.231 297.412 153.231 297.607C153.231 297.854 153.266 298.078 153.335 298.278C153.404 298.48 153.499 298.651 153.621 298.792C153.741 298.934 153.882 299.042 154.043 299.118C154.203 299.193 154.372 299.231 154.55 299.231C154.716 299.231 154.869 299.222 155.007 299.204C155.146 299.186 155.265 299.168 155.364 299.148C155.479 299.124 155.582 299.096 155.673 299.064L155.774 299.488C155.667 299.524 155.548 299.556 155.417 299.584C155.307 299.607 155.178 299.629 155.031 299.649C154.885 299.669 154.724 299.679 154.55 299.679C154.237 299.679 153.963 299.627 153.728 299.524C153.492 299.42 153.295 299.276 153.139 299.09C152.983 298.906 152.865 298.687 152.785 298.434C152.706 298.181 152.666 297.904 152.666 297.601C152.666 297.255 152.714 296.949 152.809 296.684C152.904 296.42 153.035 296.198 153.201 296.019C153.368 295.84 153.566 295.705 153.795 295.613C154.025 295.521 154.277 295.476 154.55 295.476C154.716 295.476 154.872 295.484 155.017 295.502C155.161 295.52 155.294 295.543 155.415 295.571C155.535 295.599 155.647 295.629 155.75 295.661ZM156.6 298.115C156.6 298.501 156.686 298.788 156.858 298.977C157.03 299.166 157.263 299.261 157.556 299.261C157.846 299.261 158.071 299.168 158.234 298.98C158.396 298.793 158.477 298.513 158.477 298.139C158.477 297.741 158.391 297.444 158.218 297.249C158.046 297.054 157.812 296.956 157.515 296.956C157.218 296.956 156.991 297.053 156.834 297.245C156.678 297.439 156.6 297.729 156.6 298.115ZM156.095 298.109C156.095 297.806 156.142 297.555 156.237 297.354C156.332 297.153 156.453 296.991 156.6 296.869C156.746 296.748 156.904 296.663 157.072 296.612C157.24 296.563 157.4 296.538 157.55 296.538C157.693 296.538 157.848 296.561 158.016 296.607C158.185 296.653 158.341 296.734 158.483 296.851C158.626 296.969 158.745 297.127 158.84 297.324C158.935 297.521 158.982 297.77 158.982 298.073C158.982 298.387 158.934 298.648 158.836 298.855C158.74 299.062 158.618 299.226 158.471 299.347C158.325 299.469 158.166 299.555 157.996 299.605C157.826 299.654 157.667 299.679 157.521 299.679C157.37 299.679 157.212 299.655 157.045 299.607C156.879 299.56 156.725 299.477 156.584 299.36C156.444 299.242 156.327 299.082 156.234 298.879C156.141 298.676 156.095 298.419 156.095 298.109ZM159.678 299.601V297.195C159.681 297.112 159.672 296.931 159.648 296.652L160.087 296.592L160.153 296.974C160.272 296.895 160.389 296.825 160.506 296.765C160.623 296.706 160.743 296.653 160.866 296.607C160.989 296.561 161.107 296.538 161.222 296.538C161.385 296.538 161.52 296.557 161.629 296.595C161.738 296.633 161.826 296.696 161.894 296.783C161.961 296.871 162.009 296.986 162.039 297.13C162.069 297.273 162.084 297.452 162.084 297.667V299.601H161.609V297.721C161.609 297.601 161.607 297.495 161.603 297.401C161.599 297.307 161.582 297.228 161.551 297.162C161.522 297.097 161.477 297.046 161.415 297.01C161.354 296.974 161.268 296.956 161.157 296.956C161.054 296.956 160.945 296.979 160.83 297.024C160.715 297.071 160.602 297.124 160.491 297.183C160.381 297.243 160.268 297.313 160.153 297.392V299.601H159.678ZM164.786 300.969V299.363C164.671 299.446 164.536 299.52 164.38 299.584C164.223 299.647 164.079 299.679 163.948 299.679C163.786 299.679 163.633 299.651 163.488 299.595C163.343 299.54 163.217 299.45 163.108 299.327C162.999 299.203 162.912 299.043 162.849 298.846C162.786 298.649 162.754 298.407 162.754 298.121C162.754 297.85 162.799 297.615 162.888 297.416C162.977 297.217 163.092 297.053 163.233 296.923C163.373 296.794 163.53 296.698 163.702 296.634C163.874 296.57 164.041 296.538 164.204 296.538C164.354 296.538 164.477 296.547 164.572 296.565C164.667 296.583 164.75 296.602 164.822 296.622C164.893 296.642 164.96 296.661 165.024 296.678C165.087 296.696 165.164 296.706 165.255 296.706V300.909L164.786 300.969ZM164.002 299.261C164.089 299.261 164.178 299.245 164.269 299.213C164.36 299.181 164.447 299.144 164.531 299.1C164.614 299.056 164.699 299.004 164.786 298.945V297.04C164.75 297.028 164.707 297.014 164.655 296.998C164.612 296.99 164.552 296.981 164.477 296.971C164.402 296.961 164.311 296.956 164.204 296.956C164.037 296.956 163.895 296.986 163.776 297.046C163.657 297.106 163.559 297.188 163.482 297.293C163.405 297.399 163.348 297.52 163.313 297.657C163.277 297.795 163.259 297.942 163.259 298.097C163.259 298.236 163.274 298.375 163.304 298.515C163.334 298.654 163.38 298.779 163.443 298.891C163.507 299.002 163.584 299.092 163.675 299.16C163.766 299.227 163.875 299.261 164.002 299.261ZM167.935 299.649L167.899 299.273H167.888C167.852 299.301 167.8 299.338 167.733 299.383C167.666 299.429 167.588 299.474 167.501 299.518C167.414 299.562 167.318 299.599 167.214 299.631C167.108 299.663 167.002 299.679 166.895 299.679C166.749 299.679 166.624 299.66 166.521 299.623C166.418 299.585 166.335 299.522 166.271 299.434C166.208 299.347 166.163 299.231 166.135 299.088C166.107 298.945 166.093 298.766 166.093 298.551V296.598H166.569V298.479C166.569 298.598 166.57 298.706 166.574 298.801C166.578 298.897 166.592 298.978 166.616 299.046C166.64 299.114 166.679 299.166 166.733 299.204C166.786 299.242 166.862 299.261 166.961 299.261C167.064 299.261 167.171 299.239 167.282 299.195C167.392 299.152 167.493 299.102 167.585 299.046C167.691 298.982 167.796 298.911 167.899 298.831V296.598H168.375V299.213C168.379 299.357 168.389 299.486 168.404 299.601L167.935 299.649ZM171.357 299.13L171.447 299.53C171.355 299.558 171.261 299.582 171.164 299.601C171.067 299.621 170.96 299.639 170.843 299.655C170.726 299.671 170.605 299.679 170.478 299.679C170.28 299.679 170.096 299.651 169.925 299.595C169.755 299.54 169.607 299.45 169.48 299.327C169.353 299.203 169.253 299.043 169.179 298.846C169.106 298.649 169.07 298.407 169.07 298.121C169.07 297.862 169.106 297.634 169.177 297.436C169.248 297.24 169.346 297.075 169.47 296.941C169.596 296.808 169.742 296.708 169.91 296.64C170.079 296.572 170.262 296.538 170.46 296.538C170.654 296.538 170.823 296.576 170.965 296.652C171.108 296.728 171.226 296.83 171.318 296.959C171.412 297.089 171.481 297.24 171.526 297.414C171.572 297.587 171.595 297.768 171.595 297.959L171.506 298.222H169.587C169.587 298.346 169.603 298.469 169.634 298.592C169.666 298.716 169.72 298.827 169.797 298.927C169.875 299.026 169.976 299.107 170.1 299.168C170.225 299.23 170.381 299.261 170.567 299.261C170.686 299.261 170.795 299.254 170.894 299.24C170.993 299.226 171.079 299.21 171.152 299.192C171.226 299.174 171.294 299.154 171.357 299.13ZM169.605 297.84H171.102C171.102 297.812 171.096 297.751 171.084 297.655C171.072 297.559 171.044 297.46 171.001 297.356C170.957 297.253 170.89 297.16 170.799 297.078C170.708 296.997 170.587 296.956 170.436 296.956C170.27 296.956 170.133 296.991 170.026 297.06C169.92 297.13 169.834 297.213 169.771 297.309C169.708 297.404 169.664 297.502 169.64 297.601C169.617 297.701 169.605 297.78 169.605 297.84ZM173.942 296.664L173.859 297.088C173.692 297.036 173.545 297.001 173.416 296.983C173.287 296.965 173.17 296.956 173.063 296.956C172.924 296.956 172.808 296.99 172.714 297.058C172.622 297.126 172.575 297.213 172.575 297.321C172.579 297.416 172.621 297.498 172.7 297.565C172.779 297.633 172.871 297.694 172.976 297.747C173.081 297.801 173.198 297.86 173.326 297.924C173.456 297.987 173.576 298.059 173.689 298.139C173.802 298.218 173.894 298.314 173.966 298.425C174.037 298.537 174.075 298.67 174.079 298.825C174.075 298.992 174.038 299.131 173.968 299.24C173.899 299.349 173.81 299.437 173.701 299.502C173.592 299.568 173.475 299.615 173.348 299.641C173.221 299.666 173.102 299.679 172.991 299.679C172.849 299.679 172.701 299.671 172.548 299.655C172.396 299.639 172.233 299.605 172.059 299.554L172.148 299.124C172.326 299.172 172.488 299.206 172.635 299.228C172.781 299.25 172.902 299.261 172.997 299.261C173.069 299.261 173.139 299.253 173.208 299.237C173.277 299.221 173.34 299.198 173.395 299.168C173.451 299.138 173.495 299.1 173.528 299.052C173.563 299.004 173.58 298.951 173.58 298.891C173.576 298.779 173.538 298.685 173.467 298.607C173.395 298.529 173.303 298.46 173.19 298.398C173.077 298.336 172.956 298.275 172.827 298.213C172.699 298.151 172.578 298.08 172.465 297.998C172.352 297.916 172.259 297.819 172.183 297.705C172.108 297.592 172.07 297.452 172.07 297.285C172.07 297.165 172.101 297.059 172.162 296.965C172.224 296.872 172.303 296.794 172.4 296.732C172.497 296.671 172.604 296.623 172.72 296.589C172.838 296.555 172.952 296.538 173.063 296.538C173.178 296.538 173.306 296.547 173.449 296.565C173.591 296.583 173.756 296.616 173.942 296.664ZM174.939 295.762L175.414 295.703V296.598H176.276V296.986H175.414V298.58C175.414 298.712 175.417 298.821 175.424 298.909C175.429 298.996 175.442 299.066 175.462 299.118C175.482 299.17 175.509 299.206 175.545 299.228C175.581 299.25 175.626 299.261 175.682 299.261C175.832 299.257 176.006 299.201 176.205 299.094L176.347 299.458C176.216 299.546 176.095 299.605 175.982 299.635C175.869 299.664 175.757 299.679 175.646 299.679C175.385 299.679 175.202 299.604 175.097 299.455C174.992 299.306 174.939 299.058 174.939 298.712V296.986H174.392V296.598H174.939V295.762ZM178.498 299.601V296.986H177.945V296.598H178.498C178.498 296.32 178.517 296.083 178.554 295.89C178.592 295.697 178.652 295.541 178.736 295.42C178.819 295.298 178.926 295.21 179.056 295.156C179.187 295.102 179.346 295.076 179.532 295.076C179.682 295.076 179.823 295.101 179.954 295.151C180.084 295.2 180.189 295.261 180.269 295.332L180.061 295.691C179.981 295.631 179.899 295.583 179.813 295.547C179.729 295.511 179.637 295.494 179.538 295.494C179.407 295.494 179.304 295.522 179.229 295.58C179.154 295.638 179.097 295.716 179.059 295.816C179.022 295.916 178.998 296.032 178.988 296.165C178.978 296.298 178.973 296.443 178.973 296.598H179.716V296.986H178.973V299.601H178.498ZM180.548 298.115C180.548 298.501 180.634 298.788 180.806 298.977C180.978 299.166 181.211 299.261 181.504 299.261C181.794 299.261 182.019 299.168 182.182 298.98C182.344 298.793 182.425 298.513 182.425 298.139C182.425 297.741 182.339 297.444 182.166 297.249C181.994 297.054 181.76 296.956 181.463 296.956C181.166 296.956 180.939 297.053 180.782 297.245C180.626 297.439 180.548 297.729 180.548 298.115ZM180.043 298.109C180.043 297.806 180.09 297.555 180.185 297.354C180.28 297.153 180.401 296.991 180.548 296.869C180.694 296.748 180.852 296.663 181.02 296.612C181.188 296.563 181.348 296.538 181.498 296.538C181.641 296.538 181.796 296.561 181.964 296.607C182.133 296.653 182.289 296.734 182.431 296.851C182.574 296.969 182.693 297.127 182.788 297.324C182.883 297.521 182.93 297.77 182.93 298.073C182.93 298.387 182.882 298.648 182.784 298.855C182.688 299.062 182.566 299.226 182.419 299.347C182.273 299.469 182.114 299.555 181.944 299.605C181.774 299.654 181.615 299.679 181.469 299.679C181.318 299.679 181.16 299.655 180.993 299.607C180.827 299.56 180.673 299.477 180.532 299.36C180.392 299.242 180.275 299.082 180.182 298.879C180.089 298.676 180.043 298.419 180.043 298.109ZM183.624 299.601V297.082C183.624 296.99 183.614 296.847 183.595 296.652L184.034 296.592L184.082 297.028H184.088C184.159 296.936 184.228 296.857 184.296 296.789C184.363 296.722 184.434 296.663 184.507 296.612C184.58 296.563 184.65 296.538 184.718 296.538C184.809 296.534 184.935 296.544 185.098 296.568L184.991 297.028C184.86 297.004 184.769 296.994 184.718 296.998C184.65 296.998 184.579 297.03 184.504 297.094C184.428 297.157 184.363 297.225 184.308 297.297C184.236 297.384 184.167 297.484 184.1 297.595V299.601H183.624ZM186.987 300.963V297.291C186.987 297.147 186.977 296.935 186.958 296.652L187.397 296.592L187.451 296.915C187.53 296.847 187.612 296.786 187.697 296.732C187.782 296.679 187.875 296.633 187.976 296.595C188.077 296.557 188.185 296.538 188.3 296.538C188.463 296.538 188.616 296.566 188.76 296.622C188.905 296.678 189.032 296.767 189.14 296.891C189.25 297.014 189.336 297.174 189.4 297.371C189.463 297.568 189.495 297.81 189.495 298.097C189.495 298.387 189.452 298.633 189.366 298.834C189.281 299.035 189.171 299.198 189.034 299.323C188.897 299.449 188.743 299.54 188.57 299.595C188.398 299.651 188.223 299.679 188.045 299.679C187.855 299.675 187.661 299.651 187.463 299.607V300.903L186.987 300.963ZM188.045 299.261C188.211 299.261 188.354 299.231 188.473 299.172C188.591 299.112 188.689 299.029 188.766 298.923C188.844 298.818 188.9 298.697 188.936 298.56C188.972 298.422 188.99 298.276 188.99 298.121C188.99 297.981 188.976 297.842 188.95 297.703C188.925 297.563 188.883 297.439 188.826 297.329C188.769 297.22 188.692 297.13 188.597 297.06C188.502 296.991 188.385 296.956 188.247 296.956C188.144 296.956 188.047 296.975 187.956 297.013C187.865 297.051 187.778 297.097 187.697 297.15C187.616 297.204 187.538 297.265 187.463 297.333V299.166C187.506 299.181 187.554 299.196 187.608 299.21C187.661 299.224 187.725 299.236 187.798 299.246C187.871 299.256 187.954 299.261 188.045 299.261ZM190.196 299.601V297.082C190.196 296.99 190.186 296.847 190.166 296.652L190.606 296.592L190.653 297.028H190.659C190.73 296.936 190.8 296.857 190.867 296.789C190.934 296.722 191.005 296.663 191.077 296.612C191.151 296.563 191.222 296.538 191.289 296.538C191.38 296.534 191.507 296.544 191.669 296.568L191.562 297.028C191.432 297.004 191.34 296.994 191.289 296.998C191.222 296.998 191.15 297.03 191.075 297.094C191 297.157 190.934 297.225 190.879 297.297C190.808 297.384 190.738 297.484 190.671 297.595V299.601H190.196ZM193.813 298.903V298.222C193.734 298.226 193.658 298.23 193.587 298.234C193.516 298.238 193.446 298.243 193.377 298.248C193.307 298.255 193.244 298.262 193.189 298.27C192.904 298.306 192.702 298.368 192.583 298.457C192.464 298.547 192.405 298.676 192.405 298.843C192.405 298.982 192.448 299.087 192.533 299.156C192.618 299.226 192.73 299.261 192.868 299.261C193.058 299.261 193.228 299.228 193.377 299.162C193.525 299.097 193.67 299.01 193.813 298.903ZM193.866 299.649L193.807 299.321C193.621 299.428 193.448 299.515 193.288 299.58C193.127 299.646 192.953 299.679 192.767 299.679C192.502 299.679 192.291 299.614 192.135 299.484C191.978 299.355 191.9 299.142 191.9 298.843C191.9 298.688 191.939 298.553 192.019 298.437C192.098 298.322 192.202 298.225 192.331 298.147C192.459 298.07 192.605 298.009 192.767 297.965C192.93 297.922 193.096 297.894 193.266 297.882C193.338 297.874 193.431 297.867 193.546 297.86C193.66 297.855 193.75 297.85 193.813 297.846C193.813 297.707 193.809 297.583 193.801 297.473C193.793 297.364 193.769 297.27 193.73 297.192C193.69 297.114 193.632 297.056 193.555 297.016C193.477 296.976 193.367 296.956 193.225 296.956C193.11 296.956 192.999 296.963 192.892 296.977C192.785 296.991 192.69 297.006 192.607 297.022C192.508 297.042 192.417 297.064 192.333 297.088L192.238 296.676C192.337 296.652 192.444 296.63 192.559 296.61C192.658 296.59 192.773 296.573 192.904 296.559C193.035 296.545 193.175 296.538 193.326 296.538C193.528 296.538 193.691 296.568 193.816 296.628C193.941 296.688 194.038 296.768 194.108 296.869C194.177 296.971 194.224 297.087 194.25 297.216C194.276 297.345 194.288 297.482 194.288 297.625V299.058C194.288 299.114 194.289 299.172 194.292 299.234C194.293 299.296 194.297 299.357 194.304 299.416C194.309 299.476 194.316 299.538 194.324 299.601L193.866 299.649ZM197.075 296.634L196.98 297.034C196.912 297.018 196.819 297.001 196.7 296.983C196.582 296.965 196.461 296.956 196.338 296.956C196.16 296.956 196.014 296.992 195.902 297.064C195.789 297.136 195.7 297.228 195.637 297.341C195.574 297.455 195.53 297.58 195.506 297.717C195.482 297.855 195.471 297.989 195.471 298.121C195.471 298.324 195.496 298.498 195.548 298.643C195.599 298.788 195.668 298.907 195.753 298.998C195.838 299.09 195.936 299.156 196.047 299.198C196.158 299.24 196.275 299.261 196.397 299.261C196.481 299.261 196.561 299.256 196.639 299.246C196.716 299.236 196.787 299.224 196.853 299.21C196.918 299.196 196.98 299.179 197.039 299.16L197.134 299.56C197.051 299.584 196.974 299.603 196.903 299.619C196.831 299.635 196.747 299.649 196.651 299.661C196.553 299.673 196.449 299.679 196.338 299.679C196.12 299.679 195.926 299.651 195.756 299.595C195.585 299.54 195.442 299.45 195.326 299.327C195.208 299.203 195.119 299.042 195.058 298.843C194.996 298.644 194.966 298.401 194.966 298.115C194.966 297.836 195.004 297.596 195.082 297.395C195.159 297.194 195.261 297.031 195.387 296.905C195.514 296.78 195.66 296.688 195.825 296.628C195.989 296.568 196.16 296.538 196.338 296.538C196.433 296.538 196.525 296.543 196.615 296.553C196.704 296.563 196.782 296.574 196.849 296.586C196.928 296.602 197.004 296.618 197.075 296.634ZM197.942 295.762L198.418 295.703V296.598H199.279V296.986H198.418V298.58C198.418 298.712 198.42 298.821 198.426 298.909C198.432 298.996 198.445 299.066 198.465 299.118C198.485 299.17 198.513 299.206 198.548 299.228C198.584 299.25 198.63 299.261 198.685 299.261C198.835 299.257 199.01 299.201 199.208 299.094L199.35 299.458C199.22 299.546 199.098 299.605 198.984 299.635C198.872 299.664 198.76 299.679 198.649 299.679C198.388 299.679 198.205 299.604 198.099 299.455C197.995 299.306 197.942 299.058 197.942 298.712V296.986H197.396V296.598H197.942V295.762ZM199.885 299.601V296.592L200.36 296.538V299.601H199.885ZM199.808 295.738C199.808 295.647 199.838 295.57 199.899 295.509C199.961 295.447 200.038 295.416 200.129 295.416C200.224 295.416 200.304 295.447 200.369 295.509C200.435 295.57 200.467 295.647 200.467 295.738C200.467 295.83 200.435 295.906 200.369 295.968C200.304 296.03 200.224 296.061 200.129 296.061C200.038 296.061 199.961 296.03 199.899 295.968C199.838 295.906 199.808 295.83 199.808 295.738ZM203.164 296.634L203.069 297.034C203.001 297.018 202.908 297.001 202.789 296.983C202.671 296.965 202.55 296.956 202.427 296.956C202.249 296.956 202.103 296.992 201.991 297.064C201.878 297.136 201.789 297.228 201.726 297.341C201.662 297.455 201.619 297.58 201.595 297.717C201.571 297.855 201.559 297.989 201.559 298.121C201.559 298.324 201.585 298.498 201.637 298.643C201.688 298.788 201.757 298.907 201.842 298.998C201.927 299.09 202.025 299.156 202.136 299.198C202.247 299.24 202.364 299.261 202.486 299.261C202.57 299.261 202.65 299.256 202.728 299.246C202.804 299.236 202.876 299.224 202.942 299.21C203.006 299.196 203.069 299.179 203.128 299.16L203.223 299.56C203.14 299.584 203.063 299.603 202.991 299.619C202.92 299.635 202.836 299.649 202.739 299.661C202.642 299.673 202.538 299.679 202.427 299.679C202.209 299.679 202.015 299.651 201.845 299.595C201.674 299.54 201.531 299.45 201.415 299.327C201.297 299.203 201.208 299.042 201.147 298.843C201.085 298.644 201.054 298.401 201.054 298.115C201.054 297.836 201.093 297.596 201.171 297.395C201.248 297.194 201.35 297.031 201.476 296.905C201.603 296.78 201.749 296.688 201.914 296.628C202.078 296.568 202.249 296.538 202.427 296.538C202.522 296.538 202.614 296.543 202.704 296.553C202.793 296.563 202.871 296.574 202.938 296.586C203.017 296.602 203.092 296.618 203.164 296.634ZM205.861 299.13L205.95 299.53C205.859 299.558 205.765 299.582 205.669 299.601C205.571 299.621 205.464 299.639 205.348 299.655C205.231 299.671 205.109 299.679 204.982 299.679C204.784 299.679 204.6 299.651 204.429 299.595C204.259 299.54 204.11 299.45 203.984 299.327C203.857 299.203 203.757 299.043 203.684 298.846C203.611 298.649 203.574 298.407 203.574 298.121C203.574 297.862 203.609 297.634 203.681 297.436C203.752 297.24 203.85 297.075 203.975 296.941C204.1 296.808 204.246 296.708 204.415 296.64C204.583 296.572 204.766 296.538 204.964 296.538C205.158 296.538 205.326 296.576 205.469 296.652C205.612 296.728 205.73 296.83 205.823 296.959C205.916 297.089 205.985 297.24 206.031 297.414C206.076 297.587 206.099 297.768 206.099 297.959L206.01 298.222H204.091C204.091 298.346 204.106 298.469 204.138 298.592C204.17 298.716 204.224 298.827 204.302 298.927C204.379 299.026 204.48 299.107 204.605 299.168C204.73 299.23 204.885 299.261 205.071 299.261C205.19 299.261 205.299 299.254 205.398 299.24C205.497 299.226 205.583 299.21 205.657 299.192C205.73 299.174 205.798 299.154 205.861 299.13ZM204.108 297.84H205.606C205.606 297.812 205.6 297.751 205.588 297.655C205.576 297.559 205.548 297.46 205.505 297.356C205.461 297.253 205.394 297.16 205.303 297.078C205.212 296.997 205.091 296.956 204.94 296.956C204.774 296.956 204.637 296.991 204.53 297.06C204.423 297.13 204.338 297.213 204.275 297.309C204.211 297.404 204.168 297.502 204.144 297.601C204.12 297.701 204.108 297.78 204.108 297.84ZM211.065 295.661L210.958 296.103C210.859 296.071 210.754 296.042 210.643 296.015C210.532 295.99 210.41 295.968 210.278 295.95C210.145 295.932 210.005 295.923 209.859 295.923C209.621 295.923 209.419 295.975 209.253 296.079C209.086 296.182 208.951 296.314 208.846 296.475C208.741 296.637 208.664 296.817 208.617 297.016C208.569 297.215 208.546 297.412 208.546 297.607C208.546 297.854 208.58 298.078 208.65 298.278C208.719 298.48 208.814 298.651 208.935 298.792C209.056 298.934 209.196 299.042 209.357 299.118C209.517 299.193 209.686 299.231 209.865 299.231C210.031 299.231 210.183 299.222 210.322 299.204C210.461 299.186 210.58 299.168 210.679 299.148C210.793 299.124 210.896 299.096 210.988 299.064L211.089 299.488C210.982 299.524 210.863 299.556 210.732 299.584C210.621 299.607 210.492 299.629 210.346 299.649C210.199 299.669 210.039 299.679 209.865 299.679C209.552 299.679 209.278 299.627 209.042 299.524C208.806 299.42 208.61 299.276 208.454 299.09C208.297 298.906 208.179 298.687 208.1 298.434C208.021 298.181 207.981 297.904 207.981 297.601C207.981 297.255 208.029 296.949 208.124 296.684C208.219 296.42 208.349 296.198 208.516 296.019C208.682 295.84 208.88 295.705 209.11 295.613C209.34 295.521 209.591 295.476 209.865 295.476C210.031 295.476 210.187 295.484 210.332 295.502C210.476 295.52 210.608 295.543 210.73 295.571C210.85 295.599 210.962 295.629 211.065 295.661ZM212.657 299.601V295.995H211.386V295.529H214.428V295.995H213.156V299.601H212.657ZM215.052 299.601V295.529H217.535V295.989H215.551V297.291H217.393V297.739H215.551V299.601H215.052ZM221.479 296.634L221.384 297.034C221.317 297.018 221.224 297.001 221.105 296.983C220.986 296.965 220.865 296.956 220.742 296.956C220.564 296.956 220.419 296.992 220.306 297.064C220.193 297.136 220.105 297.228 220.041 297.341C219.978 297.455 219.934 297.58 219.911 297.717C219.887 297.855 219.875 297.989 219.875 298.121C219.875 298.324 219.901 298.498 219.952 298.643C220.004 298.788 220.072 298.907 220.158 298.998C220.243 299.09 220.34 299.156 220.451 299.198C220.562 299.24 220.679 299.261 220.802 299.261C220.885 299.261 220.965 299.256 221.043 299.246C221.12 299.236 221.191 299.224 221.257 299.21C221.322 299.196 221.384 299.179 221.443 299.16L221.539 299.56C221.455 299.584 221.378 299.603 221.307 299.619C221.236 299.635 221.152 299.649 221.055 299.661C220.957 299.673 220.853 299.679 220.742 299.679C220.525 299.679 220.33 299.651 220.16 299.595C219.99 299.54 219.846 299.45 219.73 299.327C219.613 299.203 219.524 299.042 219.463 298.843C219.401 298.644 219.37 298.401 219.37 298.115C219.37 297.836 219.409 297.596 219.486 297.395C219.563 297.194 219.665 297.031 219.792 296.905C219.918 296.78 220.064 296.688 220.229 296.628C220.393 296.568 220.564 296.538 220.742 296.538C220.837 296.538 220.93 296.543 221.019 296.553C221.108 296.563 221.186 296.574 221.253 296.586C221.333 296.602 221.408 296.618 221.479 296.634ZM222.394 298.115C222.394 298.501 222.48 298.788 222.653 298.977C222.825 299.166 223.058 299.261 223.351 299.261C223.64 299.261 223.866 299.168 224.028 298.98C224.19 298.793 224.272 298.513 224.272 298.139C224.272 297.741 224.186 297.444 224.014 297.249C223.841 297.054 223.606 296.956 223.309 296.956C223.012 296.956 222.785 297.053 222.629 297.245C222.473 297.439 222.394 297.729 222.394 298.115ZM221.889 298.109C221.889 297.806 221.937 297.555 222.032 297.354C222.127 297.153 222.248 296.991 222.394 296.869C222.541 296.748 222.698 296.663 222.867 296.612C223.035 296.563 223.194 296.538 223.345 296.538C223.487 296.538 223.643 296.561 223.812 296.607C223.98 296.653 224.135 296.734 224.278 296.851C224.42 296.969 224.539 297.127 224.634 297.324C224.729 297.521 224.777 297.77 224.777 298.073C224.777 298.387 224.728 298.648 224.632 298.855C224.534 299.062 224.412 299.226 224.266 299.347C224.119 299.469 223.961 299.555 223.79 299.605C223.62 299.654 223.462 299.679 223.315 299.679C223.165 299.679 223.006 299.655 222.84 299.607C222.673 299.56 222.52 299.477 222.38 299.36C222.239 299.242 222.122 299.082 222.029 298.879C221.936 298.676 221.889 298.419 221.889 298.109ZM225.472 299.601V297.141C225.472 297.006 225.46 296.843 225.436 296.652L225.882 296.592L225.947 296.968C226.054 296.889 226.159 296.819 226.262 296.759C226.365 296.7 226.476 296.648 226.595 296.604C226.714 296.56 226.834 296.538 226.957 296.538C227.155 296.538 227.312 296.573 227.427 296.642C227.541 296.712 227.627 296.831 227.682 296.998C227.845 296.883 228.014 296.777 228.19 296.682C228.366 296.586 228.55 296.538 228.74 296.538C228.886 296.538 229.011 296.557 229.114 296.595C229.217 296.633 229.3 296.696 229.364 296.783C229.427 296.871 229.473 296.986 229.5 297.13C229.528 297.273 229.542 297.452 229.542 297.667V299.601H229.066V297.721C229.066 297.601 229.065 297.495 229.061 297.401C229.057 297.307 229.043 297.228 229.019 297.162C228.995 297.097 228.956 297.046 228.903 297.01C228.849 296.974 228.773 296.956 228.674 296.956C228.583 296.956 228.497 296.969 228.415 296.995C228.334 297.021 228.251 297.058 228.163 297.106C228.076 297.153 227.942 297.251 227.759 297.398V299.601H227.284V297.721C227.284 297.601 227.282 297.495 227.278 297.401C227.274 297.307 227.26 297.228 227.236 297.162C227.213 297.097 227.174 297.046 227.12 297.01C227.067 296.974 226.991 296.956 226.892 296.956C226.789 296.956 226.682 296.978 226.571 297.022C226.46 297.066 226.355 297.118 226.256 297.177C226.157 297.237 226.054 297.307 225.947 297.386V299.601H225.472ZM230.386 300.963V297.291C230.386 297.147 230.376 296.935 230.356 296.652L230.795 296.592L230.849 296.915C230.928 296.847 231.01 296.786 231.095 296.732C231.18 296.679 231.274 296.633 231.374 296.595C231.476 296.557 231.584 296.538 231.699 296.538C231.861 296.538 232.014 296.566 232.158 296.622C232.303 296.678 232.43 296.767 232.539 296.891C232.648 297.014 232.734 297.174 232.798 297.371C232.861 297.568 232.893 297.81 232.893 298.097C232.893 298.387 232.85 298.633 232.765 298.834C232.68 299.035 232.569 299.198 232.432 299.323C232.296 299.449 232.141 299.54 231.968 299.595C231.796 299.651 231.621 299.679 231.443 299.679C231.253 299.675 231.059 299.651 230.861 299.607V300.903L230.386 300.963ZM231.443 299.261C231.609 299.261 231.752 299.231 231.871 299.172C231.99 299.112 232.088 299.029 232.164 298.923C232.242 298.818 232.299 298.697 232.334 298.56C232.37 298.422 232.388 298.276 232.388 298.121C232.388 297.981 232.375 297.842 232.349 297.703C232.323 297.563 232.282 297.439 232.224 297.329C232.167 297.22 232.091 297.13 231.996 297.06C231.901 296.991 231.784 296.956 231.645 296.956C231.542 296.956 231.445 296.975 231.354 297.013C231.263 297.051 231.177 297.097 231.095 297.15C231.014 297.204 230.936 297.265 230.861 297.333V299.166C230.904 299.181 230.953 299.196 231.006 299.21C231.06 299.224 231.123 299.236 231.196 299.246C231.27 299.256 231.352 299.261 231.443 299.261ZM235.708 299.13L235.797 299.53C235.706 299.558 235.612 299.582 235.515 299.601C235.418 299.621 235.311 299.639 235.195 299.655C235.077 299.671 234.955 299.679 234.829 299.679C234.631 299.679 234.446 299.651 234.276 299.595C234.106 299.54 233.957 299.45 233.83 299.327C233.704 299.203 233.604 299.043 233.531 298.846C233.457 298.649 233.42 298.407 233.42 298.121C233.42 297.862 233.456 297.634 233.527 297.436C233.599 297.24 233.697 297.075 233.822 296.941C233.946 296.808 234.093 296.708 234.262 296.64C234.43 296.572 234.613 296.538 234.811 296.538C235.005 296.538 235.173 296.576 235.316 296.652C235.458 296.728 235.576 296.83 235.67 296.959C235.763 297.089 235.832 297.24 235.878 297.414C235.923 297.587 235.946 297.768 235.946 297.959L235.856 298.222H233.937C233.937 298.346 233.953 298.469 233.985 298.592C234.017 298.716 234.071 298.827 234.149 298.927C234.226 299.026 234.327 299.107 234.452 299.168C234.576 299.23 234.732 299.261 234.918 299.261C235.037 299.261 235.145 299.254 235.245 299.24C235.344 299.226 235.43 299.21 235.504 299.192C235.576 299.174 235.645 299.154 235.708 299.13ZM233.955 297.84H235.452C235.452 297.812 235.447 297.751 235.435 297.655C235.423 297.559 235.395 297.46 235.351 297.356C235.308 297.253 235.241 297.16 235.149 297.078C235.058 296.997 234.938 296.956 234.787 296.956C234.621 296.956 234.484 296.991 234.377 297.06C234.27 297.13 234.185 297.213 234.122 297.309C234.058 297.404 234.015 297.502 233.991 297.601C233.967 297.701 233.955 297.78 233.955 297.84ZM236.813 295.762L237.288 295.703V296.598H238.15V296.986H237.288V298.58C237.288 298.712 237.292 298.821 237.298 298.909C237.303 298.996 237.316 299.066 237.336 299.118C237.356 299.17 237.383 299.206 237.419 299.228C237.455 299.25 237.5 299.261 237.556 299.261C237.706 299.257 237.881 299.201 238.079 299.094L238.221 299.458C238.091 299.546 237.969 299.605 237.856 299.635C237.743 299.664 237.631 299.679 237.52 299.679C237.259 299.679 237.076 299.604 236.971 299.455C236.866 299.306 236.813 299.058 236.813 298.712V296.986H236.266V296.598H236.813V295.762ZM238.756 299.601V296.592L239.231 296.538V299.601H238.756ZM238.679 295.738C238.679 295.647 238.709 295.57 238.77 295.509C238.832 295.447 238.908 295.416 239 295.416C239.095 295.416 239.175 295.447 239.24 295.509C239.305 295.57 239.338 295.647 239.338 295.738C239.338 295.83 239.305 295.906 239.24 295.968C239.175 296.03 239.095 296.061 239 296.061C238.908 296.061 238.832 296.03 238.77 295.968C238.709 295.906 238.679 295.83 238.679 295.738ZM240.307 295.762L240.782 295.703V296.598H241.644V296.986H240.782V298.58C240.782 298.712 240.785 298.821 240.79 298.909C240.797 298.996 240.81 299.066 240.83 299.118C240.849 299.17 240.877 299.206 240.913 299.228C240.948 299.25 240.994 299.261 241.049 299.261C241.2 299.257 241.374 299.201 241.572 299.094L241.715 299.458C241.584 299.546 241.462 299.605 241.349 299.635C241.236 299.664 241.125 299.679 241.014 299.679C240.752 299.679 240.569 299.604 240.464 299.455C240.359 299.306 240.307 299.058 240.307 298.712V296.986H239.76V296.598H240.307V295.762ZM242.248 299.601V296.592L242.724 296.538V299.601H242.248ZM242.171 295.738C242.171 295.647 242.202 295.57 242.264 295.509C242.325 295.447 242.401 295.416 242.492 295.416C242.587 295.416 242.667 295.447 242.733 295.509C242.798 295.57 242.831 295.647 242.831 295.738C242.831 295.83 242.798 295.906 242.733 295.968C242.667 296.03 242.587 296.061 242.492 296.061C242.401 296.061 242.325 296.03 242.264 295.968C242.202 295.906 242.171 295.83 242.171 295.738ZM243.918 298.115C243.918 298.501 244.004 298.788 244.177 298.977C244.349 299.166 244.581 299.261 244.875 299.261C245.164 299.261 245.39 299.168 245.552 298.98C245.714 298.793 245.796 298.513 245.796 298.139C245.796 297.741 245.71 297.444 245.538 297.249C245.365 297.054 245.13 296.956 244.833 296.956C244.536 296.956 244.309 297.053 244.153 297.245C243.996 297.439 243.918 297.729 243.918 298.115ZM243.413 298.109C243.413 297.806 243.46 297.555 243.556 297.354C243.651 297.153 243.771 296.991 243.918 296.869C244.065 296.748 244.222 296.663 244.391 296.612C244.559 296.563 244.718 296.538 244.869 296.538C245.011 296.538 245.167 296.561 245.336 296.607C245.504 296.653 245.659 296.734 245.801 296.851C245.944 296.969 246.063 297.127 246.158 297.324C246.253 297.521 246.301 297.77 246.301 298.073C246.301 298.387 246.252 298.648 246.156 298.855C246.058 299.062 245.936 299.226 245.79 299.347C245.643 299.469 245.485 299.555 245.314 299.605C245.144 299.654 244.985 299.679 244.839 299.679C244.688 299.679 244.53 299.655 244.364 299.607C244.197 299.56 244.044 299.477 243.904 299.36C243.763 299.242 243.646 299.082 243.553 298.879C243.46 298.676 243.413 298.419 243.413 298.109ZM246.996 299.601V297.195C247 297.112 246.99 296.931 246.966 296.652L247.406 296.592L247.471 296.974C247.59 296.895 247.708 296.825 247.824 296.765C247.941 296.706 248.061 296.653 248.184 296.607C248.307 296.561 248.426 296.538 248.541 296.538C248.703 296.538 248.838 296.557 248.947 296.595C249.056 296.633 249.145 296.696 249.212 296.783C249.279 296.871 249.328 296.986 249.357 297.13C249.387 297.273 249.402 297.452 249.402 297.667V299.601H248.927V297.721C248.927 297.601 248.925 297.495 248.921 297.401C248.917 297.307 248.9 297.228 248.87 297.162C248.84 297.097 248.795 297.046 248.733 297.01C248.672 296.974 248.586 296.956 248.475 296.956C248.372 296.956 248.263 296.979 248.148 297.024C248.034 297.071 247.921 297.124 247.81 297.183C247.699 297.243 247.586 297.313 247.471 297.392V299.601H246.996Z" fill="#6A704C"/>
</g>
</g>
</g>
</g>
<g clip-path="url(#clip10_153_13)">
<g clip-path="url(#clip11_153_13)">
<path d="M199.567 107.053H191.773V118.149H199.567V107.053Z" fill="#412E27"/>
<path d="M209.1 168.052H245.898V107.053H221.646V122.717H215.373V91.3895H199.567V83.7755H215.373V65.3924H199.567V60.4974H191.773V91.3895H176.186V122.717H169.912V107.053H145.673V168.052H209.1ZM207.579 73.2244V75.9435H199.567V73.2244H207.579ZM190.265 160.22V153.719H201.306V160.22H190.265ZM153.467 160.22V114.885H162.118V130.549H183.979V99.2215H207.579V130.549H229.44V114.885H238.104V160.22H209.1V145.887H182.471V160.22H153.467Z" fill="#412E27"/>
</g>
</g>
</g>
</g>
</g>
</g>
<defs>
<clipPath id="clip0_153_13">
<rect width="392" height="362" rx="15" fill="white"/>
</clipPath>
<clipPath id="clip1_153_13">
<rect width="175.295" height="241.333" fill="white" transform="translate(108.138 60.1082)"/>
</clipPath>
<clipPath id="clip2_153_13">
<rect width="174.403" height="240.555" fill="white" transform="translate(108.584 60.4974)"/>
</clipPath>
<clipPath id="clip3_153_13">
<rect width="174.403" height="240.555" fill="white" transform="translate(108.584 60.4974)"/>
</clipPath>
<clipPath id="clip4_153_13">
<rect width="173.536" height="93.2823" fill="white" transform="translate(109.018 207.77)"/>
</clipPath>
<clipPath id="clip5_153_13">
<rect width="173.536" height="93.2823" fill="white" transform="translate(109.018 207.77)"/>
</clipPath>
<clipPath id="clip6_153_13">
<rect width="173.536" height="70.6312" fill="white" transform="translate(109.018 207.77)"/>
</clipPath>
<clipPath id="clip7_153_13">
<rect width="173.536" height="70.6312" fill="white" transform="translate(109.018 207.77)"/>
</clipPath>
<clipPath id="clip8_153_13">
<rect width="107.245" height="5.97669" fill="white" transform="translate(142.163 295.076)"/>
</clipPath>
<clipPath id="clip9_153_13">
<rect width="107.245" height="5.97669" fill="white" transform="translate(142.163 295.076)"/>
</clipPath>
<clipPath id="clip10_153_13">
<rect width="107.245" height="107.554" fill="white" transform="translate(142.163 60.4974)"/>
</clipPath>
<clipPath id="clip11_153_13">
<rect width="100.225" height="107.554" fill="white" transform="translate(145.673 60.4974)"/>
</clipPath>
</defs>
</svg>
