<svg width="800" height="800" viewBox="0 0 800 800" fill="none" xmlns="http://www.w3.org/2000/svg">
<path d="M7.36668 542.267C25.3749 565.063 45.3276 586.254 67 605.6C66.9333 603.7 66.6667 601.9 66.6667 600C66.797 566.17 77.1604 533.17 96.3945 505.339C115.629 477.508 142.834 456.148 174.433 444.067C180.245 441.868 185.327 438.088 189.104 433.154C192.882 428.22 195.205 422.329 195.812 416.144C196.419 409.96 195.284 403.729 192.538 398.155C189.791 392.581 185.54 387.886 180.267 384.6C165.855 375.696 153.971 363.241 145.753 348.428C137.536 333.615 133.259 316.94 133.333 300C133.261 280.58 138.867 261.562 149.462 245.287C160.057 229.012 175.179 216.189 192.967 208.397C210.755 200.605 230.433 198.182 249.58 201.428C268.727 204.674 286.507 213.447 300.733 226.667C321.571 214.706 344.409 206.63 368.133 202.833C355.13 184.666 338.602 169.303 319.536 157.658C300.469 146.013 279.254 138.325 257.153 135.053C235.053 131.78 212.52 132.99 190.897 138.61C169.274 144.229 149.004 154.144 131.293 167.763C113.583 181.382 98.7952 198.427 87.8112 217.881C76.8272 237.336 69.8717 258.803 67.3591 281.002C64.8465 303.202 66.8282 325.68 73.1861 347.098C79.5441 368.515 90.1482 388.434 104.367 405.667C56.3935 437.782 21.8773 486.389 7.36668 542.267ZM792.633 542.267C778.137 486.365 743.62 437.732 695.633 405.6C709.805 388.362 720.367 368.451 726.69 347.05C733.013 325.648 734.968 303.194 732.44 281.022C729.912 258.85 722.952 237.413 711.973 217.985C700.994 198.557 686.221 181.534 668.532 167.929C650.843 154.324 630.599 144.415 609.004 138.79C587.409 133.165 564.903 131.94 542.825 135.187C520.747 138.434 499.547 146.086 480.485 157.69C461.424 169.294 444.89 184.612 431.867 202.733C455.592 206.529 478.429 214.605 499.267 226.567C509.48 217.174 521.54 210.014 534.677 205.546C547.813 201.078 561.738 199.399 575.56 200.617C589.382 201.835 602.798 205.923 614.951 212.62C627.104 219.316 637.726 228.474 646.14 239.509C654.553 250.543 660.572 263.211 663.812 276.703C667.052 290.195 667.441 304.215 664.956 317.866C662.471 331.518 657.166 344.501 649.379 355.986C641.592 367.471 631.495 377.205 619.733 384.567C614.459 387.853 610.209 392.548 607.462 398.122C604.716 403.696 603.581 409.927 604.188 416.111C604.795 422.295 607.118 428.187 610.896 433.121C614.673 438.055 619.755 441.834 625.567 444.033C657.172 456.117 684.38 477.482 703.615 505.32C722.849 533.157 733.21 566.164 733.333 600C733.333 601.9 733.067 603.7 733 605.567C754.671 586.231 774.623 565.051 792.633 542.267Z" fill="#5793E1"/>
<path d="M631.8 676.133C628.178 641.925 617.092 608.929 599.324 579.474C581.555 550.02 557.538 524.824 528.967 505.667C553.475 475.921 566.811 438.542 566.667 400C566.651 373.296 560.22 346.987 547.914 323.288C535.607 299.589 517.787 279.193 495.952 263.82C474.118 248.446 448.909 238.544 422.448 234.947C395.988 231.35 369.051 234.164 343.905 243.152C318.759 252.14 296.141 267.038 277.955 286.593C259.769 306.147 246.549 329.785 239.406 355.516C232.263 381.247 231.408 408.317 236.912 434.447C242.416 460.578 254.118 485.003 271.033 505.667C242.462 524.824 218.445 550.02 200.676 579.474C182.908 608.929 171.822 641.925 168.2 676.133C189.36 687.127 211.283 696.585 233.8 704.433C233.733 702.933 233.333 701.533 233.333 700C233.473 666.172 243.84 633.177 263.073 605.347C282.306 577.518 309.505 556.156 341.1 544.067C346.92 541.872 352.01 538.092 355.794 533.155C359.578 528.218 361.905 522.321 362.512 516.13C363.119 509.939 361.982 503.702 359.228 498.124C356.475 492.546 352.216 487.85 346.933 484.567C332.518 475.676 320.63 463.228 312.411 448.419C304.192 433.61 299.919 416.937 300 400C300 373.478 310.536 348.043 329.289 329.289C348.043 310.536 373.478 300 400 300C426.522 300 451.957 310.536 470.711 329.289C489.464 348.043 500 373.478 500 400C500.081 416.937 495.808 433.61 487.589 448.419C479.37 463.228 467.482 475.676 453.067 484.567C447.784 487.85 443.525 492.546 440.772 498.124C438.018 503.702 436.881 509.939 437.488 516.13C438.095 522.321 440.422 528.218 444.206 533.155C447.99 538.092 453.08 541.872 458.9 544.067C490.495 556.156 517.694 577.518 536.927 605.347C556.16 633.177 566.527 666.172 566.667 700C566.667 701.533 566.267 702.933 566.233 704.433C588.739 696.583 610.651 687.126 631.8 676.133Z" fill="#5793E1"/>
</svg>
