<svg width="364" height="106" viewBox="0 0 364 106" fill="none" xmlns="http://www.w3.org/2000/svg">
<path d="M117.203 45.026V50.095H106.621V55.571H114.539V60.492H106.621V71H100.294V45.026H117.203ZM126.855 43.62V71H120.528V43.62H126.855ZM130.182 60.64C130.182 58.5187 130.577 56.6563 131.366 55.053C132.18 53.4497 133.278 52.2163 134.659 51.353C136.041 50.4897 137.582 50.058 139.284 50.058C140.74 50.058 142.01 50.354 143.095 50.946C144.205 51.538 145.056 52.315 145.648 53.277V50.354H151.975V71H145.648V68.077C145.032 69.039 144.168 69.816 143.058 70.408C141.973 71 140.703 71.296 139.247 71.296C137.57 71.296 136.041 70.8643 134.659 70.001C133.278 69.113 132.18 67.8673 131.366 66.264C130.577 64.636 130.182 62.7613 130.182 60.64ZM145.648 60.677C145.648 59.0983 145.204 57.8527 144.316 56.94C143.453 56.0273 142.392 55.571 141.134 55.571C139.876 55.571 138.803 56.0273 137.915 56.94C137.052 57.828 136.62 59.0613 136.62 60.64C136.62 62.2187 137.052 63.4767 137.915 64.414C138.803 65.3267 139.876 65.783 141.134 65.783C142.392 65.783 143.453 65.3267 144.316 64.414C145.204 63.5013 145.648 62.2557 145.648 60.677ZM164.397 50.058C165.852 50.058 167.122 50.354 168.208 50.946C169.318 51.538 170.169 52.315 170.761 53.277V50.354H177.088V70.963C177.088 72.8623 176.705 74.5767 175.941 76.106C175.201 77.66 174.054 78.8933 172.5 79.806C170.97 80.7187 169.059 81.175 166.765 81.175C163.706 81.175 161.227 80.4473 159.328 78.992C157.428 77.5613 156.343 75.6127 156.072 73.146H162.325C162.522 73.9353 162.991 74.552 163.731 74.996C164.471 75.4647 165.383 75.699 166.469 75.699C167.776 75.699 168.812 75.3167 169.577 74.552C170.366 73.812 170.761 72.6157 170.761 70.963V68.04C170.144 69.002 169.293 69.7913 168.208 70.408C167.122 71 165.852 71.296 164.397 71.296C162.695 71.296 161.153 70.8643 159.772 70.001C158.39 69.113 157.293 67.8673 156.479 66.264C155.689 64.636 155.295 62.7613 155.295 60.64C155.295 58.5187 155.689 56.6563 156.479 55.053C157.293 53.4497 158.39 52.2163 159.772 51.353C161.153 50.4897 162.695 50.058 164.397 50.058ZM170.761 60.677C170.761 59.0983 170.317 57.8527 169.429 56.94C168.565 56.0273 167.505 55.571 166.247 55.571C164.989 55.571 163.916 56.0273 163.028 56.94C162.164 57.828 161.733 59.0613 161.733 60.64C161.733 62.2187 162.164 63.4767 163.028 64.414C163.916 65.3267 164.989 65.783 166.247 65.783C167.505 65.783 168.565 65.3267 169.429 64.414C170.317 63.5013 170.761 62.2557 170.761 60.677ZM180.592 57.976C180.592 55.4107 181.147 53.129 182.257 51.131C183.367 49.1083 184.909 47.542 186.882 46.432C188.88 45.2973 191.137 44.73 193.653 44.73C196.736 44.73 199.376 45.544 201.571 47.172C203.766 48.8 205.234 51.02 205.974 53.832H199.018C198.5 52.7467 197.76 51.9203 196.798 51.353C195.861 50.7857 194.788 50.502 193.579 50.502C191.63 50.502 190.052 51.1803 188.843 52.537C187.634 53.8937 187.03 55.7067 187.03 57.976C187.03 60.2453 187.634 62.0583 188.843 63.415C190.052 64.7717 191.63 65.45 193.579 65.45C194.788 65.45 195.861 65.1663 196.798 64.599C197.76 64.0317 198.5 63.2053 199.018 62.12H205.974C205.234 64.932 203.766 67.152 201.571 68.78C199.376 70.3833 196.736 71.185 193.653 71.185C191.137 71.185 188.88 70.63 186.882 69.52C184.909 68.3853 183.367 66.819 182.257 64.821C181.147 62.823 180.592 60.5413 180.592 57.976ZM219.247 71.296C217.224 71.296 215.399 70.8643 213.771 70.001C212.167 69.1377 210.897 67.9043 209.96 66.301C209.047 64.6977 208.591 62.823 208.591 60.677C208.591 58.5557 209.059 56.6933 209.997 55.09C210.934 53.462 212.217 52.2163 213.845 51.353C215.473 50.4897 217.298 50.058 219.321 50.058C221.343 50.058 223.169 50.4897 224.797 51.353C226.425 52.2163 227.707 53.462 228.645 55.09C229.582 56.6933 230.051 58.5557 230.051 60.677C230.051 62.7983 229.57 64.673 228.608 66.301C227.67 67.9043 226.375 69.1377 224.723 70.001C223.095 70.8643 221.269 71.296 219.247 71.296ZM219.247 65.82C220.455 65.82 221.479 65.376 222.318 64.488C223.181 63.6 223.613 62.3297 223.613 60.677C223.613 59.0243 223.193 57.754 222.355 56.866C221.541 55.978 220.529 55.534 219.321 55.534C218.087 55.534 217.064 55.978 216.25 56.866C215.436 57.7293 215.029 58.9997 215.029 60.677C215.029 62.3297 215.423 63.6 216.213 64.488C217.027 65.376 218.038 65.82 219.247 65.82ZM245.987 50.132C248.405 50.132 250.329 50.9213 251.759 52.5C253.215 54.054 253.942 56.2 253.942 58.938V71H247.652V59.789C247.652 58.4077 247.295 57.3347 246.579 56.57C245.864 55.8053 244.902 55.423 243.693 55.423C242.485 55.423 241.523 55.8053 240.807 56.57C240.092 57.3347 239.734 58.4077 239.734 59.789V71H233.407V50.354H239.734V53.092C240.376 52.1793 241.239 51.464 242.324 50.946C243.41 50.4033 244.631 50.132 245.987 50.132ZM257.081 60.714C257.081 58.6667 257.5 56.8413 258.339 55.238C259.202 53.6347 260.349 52.389 261.78 51.501C263.235 50.5883 264.814 50.132 266.516 50.132C267.823 50.132 268.995 50.3663 270.031 50.835C271.067 51.279 271.906 51.908 272.547 52.722V50.354H278.874V80.842H272.547V68.41C271.832 69.2733 270.956 69.964 269.92 70.482C268.909 71 267.749 71.259 266.442 71.259C264.765 71.259 263.211 70.815 261.78 69.927C260.349 69.039 259.202 67.7933 258.339 66.19C257.5 64.5867 257.081 62.7613 257.081 60.714ZM272.547 60.677C272.547 59.567 272.325 58.642 271.881 57.902C271.462 57.1373 270.907 56.57 270.216 56.2C269.525 55.8053 268.798 55.608 268.033 55.608C267.293 55.608 266.578 55.8053 265.887 56.2C265.196 56.57 264.629 57.1373 264.185 57.902C263.741 58.6667 263.519 59.604 263.519 60.714C263.519 61.824 263.741 62.7613 264.185 63.526C264.629 64.266 265.196 64.8333 265.887 65.228C266.578 65.598 267.293 65.783 268.033 65.783C268.773 65.783 269.488 65.598 270.179 65.228C270.894 64.8333 271.462 64.2537 271.881 63.489C272.325 62.7243 272.547 61.787 272.547 60.677ZM303.838 50.354V71H297.511V68.188C296.87 69.1007 295.994 69.8407 294.884 70.408C293.799 70.9507 292.59 71.222 291.258 71.222C289.68 71.222 288.286 70.8767 287.077 70.186C285.869 69.4707 284.931 68.447 284.265 67.115C283.599 65.783 283.266 64.2167 283.266 62.416V50.354H289.556V61.565C289.556 62.9463 289.914 64.0193 290.629 64.784C291.345 65.5487 292.307 65.931 293.515 65.931C294.749 65.931 295.723 65.5487 296.438 64.784C297.154 64.0193 297.511 62.9463 297.511 61.565V50.354H303.838ZM327.845 60.344C327.845 60.936 327.808 61.5527 327.734 62.194H313.415C313.514 63.4767 313.921 64.4633 314.636 65.154C315.376 65.82 316.276 66.153 317.337 66.153C318.916 66.153 320.013 65.487 320.63 64.155H327.364C327.019 65.5117 326.39 66.7327 325.477 67.818C324.589 68.9033 323.467 69.7543 322.11 70.371C320.753 70.9877 319.236 71.296 317.559 71.296C315.536 71.296 313.736 70.8643 312.157 70.001C310.578 69.1377 309.345 67.9043 308.457 66.301C307.569 64.6977 307.125 62.823 307.125 60.677C307.125 58.531 307.557 56.6563 308.42 55.053C309.308 53.4497 310.541 52.2163 312.12 51.353C313.699 50.4897 315.512 50.058 317.559 50.058C319.557 50.058 321.333 50.4773 322.887 51.316C324.441 52.1547 325.65 53.351 326.513 54.905C327.401 56.459 327.845 58.272 327.845 60.344ZM321.37 58.679C321.37 57.5937 321 56.7303 320.26 56.089C319.52 55.4477 318.595 55.127 317.485 55.127C316.424 55.127 315.524 55.4353 314.784 56.052C314.069 56.6687 313.625 57.5443 313.452 58.679H321.37ZM339.582 71.296C337.781 71.296 336.178 70.9877 334.772 70.371C333.366 69.7543 332.256 68.9157 331.442 67.855C330.628 66.7697 330.171 65.561 330.073 64.229H336.326C336.4 64.9443 336.733 65.524 337.325 65.968C337.917 66.412 338.644 66.634 339.508 66.634C340.297 66.634 340.901 66.486 341.321 66.19C341.765 65.8693 341.987 65.4623 341.987 64.969C341.987 64.377 341.678 63.9453 341.062 63.674C340.445 63.378 339.446 63.0573 338.065 62.712C336.585 62.3667 335.351 62.009 334.365 61.639C333.378 61.2443 332.527 60.64 331.812 59.826C331.096 58.9873 330.739 57.865 330.739 56.459C330.739 55.275 331.059 54.202 331.701 53.24C332.367 52.2533 333.329 51.4763 334.587 50.909C335.869 50.3417 337.386 50.058 339.138 50.058C341.728 50.058 343.763 50.6993 345.243 51.982C346.747 53.2647 347.611 54.9667 347.833 57.088H341.987C341.888 56.3727 341.567 55.8053 341.025 55.386C340.507 54.9667 339.816 54.757 338.953 54.757C338.213 54.757 337.645 54.905 337.251 55.201C336.856 55.4723 336.659 55.8547 336.659 56.348C336.659 56.94 336.967 57.384 337.584 57.68C338.225 57.976 339.212 58.272 340.544 58.568C342.073 58.9627 343.319 59.3573 344.281 59.752C345.243 60.122 346.081 60.7387 346.797 61.602C347.537 62.4407 347.919 63.5753 347.944 65.006C347.944 66.2147 347.598 67.3 346.908 68.262C346.242 69.1993 345.267 69.9393 343.985 70.482C342.727 71.0247 341.259 71.296 339.582 71.296ZM363.322 65.635V71H360.103C357.809 71 356.02 70.445 354.738 69.335C353.455 68.2003 352.814 66.3627 352.814 63.822V55.608H350.298V50.354H352.814V45.322H359.141V50.354H363.285V55.608H359.141V63.896C359.141 64.5127 359.289 64.9567 359.585 65.228C359.881 65.4993 360.374 65.635 361.065 65.635H363.322Z" fill="#06C892"/>
<g clip-path="url(#clip0_0_1)">
<g clip-path="url(#clip1_0_1)">
<g clip-path="url(#clip2_0_1)">
<g clip-path="url(#clip3_0_1)">
<path d="M83.3329 61.2018H0.860114C0.395334 61.2018 0.0185547 61.5643 0.0185547 62.0113V63.3343C0.0185547 63.7813 0.395334 64.1437 0.860114 64.1437H83.3329C83.7977 64.1437 84.1745 63.7813 84.1745 63.3343V62.0113C84.1745 61.5643 83.7977 61.2018 83.3329 61.2018Z" fill="#FD696E"/>
<g clip-path="url(#clip4_0_1)">
<g clip-path="url(#clip5_0_1)">
<g clip-path="url(#clip6_0_1)">
<g clip-path="url(#clip7_0_1)">
<path d="M15.5748 104.467C12.4963 104.467 9.79396 103.842 7.46793 102.592C5.14189 101.342 3.35632 99.5715 2.11121 97.2815C0.859253 94.9981 0.233276 92.31 0.233276 89.2172C0.233276 85.927 1.00292 82.956 2.54221 80.3041C4.08149 77.6588 6.21255 75.586 8.93538 74.0857C11.6514 72.5919 14.7197 71.845 18.1403 71.845C19.406 71.845 20.699 71.9339 22.0193 72.1115C23.3328 72.2958 24.4446 72.4767 25.3544 72.6544C26.2575 72.8387 26.8287 72.9637 27.0682 73.0295L27.2734 73.3256C27.205 73.523 27.0955 74.0001 26.945 74.7569C26.7877 75.5136 26.6167 76.5007 26.4319 77.718C26.2404 78.9354 26.0933 80.2186 25.9907 81.5675L23.5278 81.765C23.562 81.6004 23.5962 81.2945 23.6304 80.847C23.6646 80.4061 23.6818 79.906 23.6818 79.3467C23.6818 76.2868 21.1676 74.7569 16.1392 74.7569C13.8816 74.7569 11.8977 75.2833 10.1873 76.3361C8.47701 77.389 7.16007 78.8762 6.2365 80.7976C5.31292 82.7257 4.85114 84.9893 4.85114 87.5886C4.85114 90.4511 5.34029 92.968 6.31859 95.1396C7.29005 97.3111 8.66515 98.9957 10.4439 100.193C12.2226 101.398 14.275 102 16.601 102C18.9271 102 20.8016 101.365 22.2246 100.095C23.6407 98.8312 24.6737 96.8669 25.3237 94.2019L27.7865 94.0045C27.6839 94.498 27.4616 95.5903 27.1195 97.2815C26.7774 98.9792 26.538 100.568 26.4012 102.049L26.0933 102.493C26.0933 102.526 25.5734 102.714 24.5335 103.056C23.4868 103.405 22.1869 103.727 20.634 104.023C19.0742 104.319 17.3878 104.467 15.5748 104.467ZM36.7144 104.072L37.1249 101.95C38.8352 101.819 40.0153 101.611 40.6652 101.328C41.3151 101.052 41.7427 100.542 41.948 99.7985C42.1532 99.0615 42.2558 97.7553 42.2558 95.8799V74.362C39.3483 74.4607 37.3711 74.6154 36.3244 74.8259C35.2846 75.0431 34.5765 75.5202 34.2002 76.2572C33.8239 77.0008 33.4819 78.4419 33.174 80.5805L30.7625 80.7779C31.1729 77.6522 31.4295 74.8062 31.5321 72.2399L31.9939 71.845L36.2526 72.3879H52.1586L56.5199 71.845L56.9817 72.2399C57.0843 74.9378 57.3408 77.718 57.7513 80.5805L55.3398 80.7779C54.9635 78.6064 54.5872 77.1422 54.2109 76.3855C53.8347 75.6287 53.1677 75.1352 52.2099 74.9049C51.2521 74.6746 49.405 74.4936 46.6684 74.362C46.4632 76.3361 46.2751 79.8237 46.104 84.8248C45.933 89.8259 45.8475 94.3335 45.8475 98.3475C45.8475 99.5649 46.0698 100.427 46.5145 100.934C46.9592 101.447 47.7117 101.703 48.7721 101.703C49.7983 101.703 50.739 101.654 51.5942 101.555L51.7481 101.753L51.2863 104.023L49.5931 103.974L43.7438 103.875C41.8624 103.875 39.5193 103.941 36.7144 104.072ZM61.2814 104.467L61.5995 102.197C63.1662 101.901 64.2232 101.463 64.7705 100.884C65.3178 100.312 65.5914 99.3346 65.5914 97.9527L65.653 77.2245C65.653 76.1716 65.523 75.4642 65.263 75.1023C65.0099 74.7404 64.5036 74.5594 63.7443 74.5594C63.4022 74.5594 63.0601 74.5759 62.7181 74.6088C62.376 74.6417 62.14 74.6581 62.01 74.6581L61.8971 74.4607L62.2666 72.2892C62.7044 72.3221 63.6006 72.355 64.9552 72.3879C66.3097 72.4208 67.7875 72.4373 69.3883 72.4373C76.1338 72.4373 80.9398 72.2399 83.8063 71.845L83.9602 72.1411C83.9329 72.3386 83.8405 72.7992 83.6832 73.523C83.5258 74.2469 83.3616 75.2504 83.1906 76.5336C83.0196 77.8167 82.8827 79.1328 82.7801 80.4818L80.3275 80.6792C80.3275 80.5147 80.3412 80.2021 80.3686 79.7415C80.4028 79.2809 80.4199 78.8367 80.4199 78.409C80.4199 77.2574 80.2762 76.4579 79.9889 76.0104C79.7015 75.5695 79.1132 75.2734 78.2238 75.1221C77.3276 74.9773 75.7678 74.9049 73.5444 74.9049C72.3472 74.9049 71.5296 74.9378 71.0918 75.0036C70.6403 75.0694 70.3461 75.2241 70.2093 75.4675C70.0793 75.7176 69.9938 76.1716 69.9527 76.8297L69.5525 87.2431L74.8271 87.2925C75.4771 87.2925 76.4383 87.2168 77.7107 87.0654C78.9695 86.9207 79.8042 86.8154 80.2146 86.7496L80.4199 86.9964L79.7015 89.9575C79.2637 89.9246 78.4359 89.8917 77.2182 89.8588C76.0073 89.8259 74.7348 89.8095 73.4007 89.8095C72.1283 89.8095 70.8079 89.9246 69.4396 90.1549L69.2447 98.3475C69.2447 99.6965 69.3952 100.591 69.6962 101.032C70.004 101.48 70.6026 101.703 71.492 101.703C72.1761 101.703 72.8876 101.68 73.6265 101.634C74.3585 101.582 74.8648 101.555 75.1453 101.555L75.2376 101.753L74.7758 104.072C74.2285 104.04 73.2126 104 71.728 103.954C70.2435 103.901 68.711 103.875 67.1307 103.875C66.0703 103.875 64.9244 103.957 63.693 104.122C62.4684 104.286 61.6645 104.401 61.2814 104.467Z" fill="#FD696E"/>
</g>
</g>
</g>
</g>
<g clip-path="url(#clip8_0_1)">
<g clip-path="url(#clip9_0_1)">
<path d="M43.9212 25.3274H40.1604V30.452H43.9212V25.3274Z" fill="#FD696E"/>
<path d="M48.5211 53.5005H66.2776V25.3274H54.5753V32.5621H51.5479V18.0927H43.9211V14.5761H51.5479V6.08555H43.9211V3.82471H40.1603V18.0927H32.6388V32.5621H29.6114V25.3274H17.9154V53.5005H48.5211ZM47.7872 9.70289V10.9587H43.9211V9.70289H47.7872ZM39.4326 49.8832V46.8808H44.7604V49.8832H39.4326ZM21.6762 49.8832V28.9448H25.8506V36.1794H36.3996V21.7101H47.7872V36.1794H58.3361V28.9448H62.5168V49.8832H48.5211V43.2634H35.6719V49.8832H21.6762Z" fill="#FD696E"/>
</g>
</g>
</g>
</g>
</g>
</g>
<defs>
<clipPath id="clip0_0_1">
<rect width="84" height="106" fill="white"/>
</clipPath>
<clipPath id="clip1_0_1">
<rect width="84.5863" height="111.464" fill="white" transform="translate(-0.196655 3.64496)"/>
</clipPath>
<clipPath id="clip2_0_1">
<rect width="84.1559" height="111.104" fill="white" transform="translate(0.0185547 3.82471)"/>
</clipPath>
<clipPath id="clip3_0_1">
<rect width="84.1559" height="111.104" fill="white" transform="translate(0.0185547 3.82471)"/>
</clipPath>
<clipPath id="clip4_0_1">
<rect width="83.7372" height="43.084" fill="white" transform="translate(0.227905 71.845)"/>
</clipPath>
<clipPath id="clip5_0_1">
<rect width="83.7372" height="43.084" fill="white" transform="translate(0.227905 71.845)"/>
</clipPath>
<clipPath id="clip6_0_1">
<rect width="83.7372" height="32.6222" fill="white" transform="translate(0.227905 71.845)"/>
</clipPath>
<clipPath id="clip7_0_1">
<rect width="83.7372" height="32.6222" fill="white" transform="translate(0.227905 71.845)"/>
</clipPath>
<clipPath id="clip8_0_1">
<rect width="51.7496" height="49.6758" fill="white" transform="translate(16.2217 3.82471)"/>
</clipPath>
<clipPath id="clip9_0_1">
<rect width="48.3622" height="49.6758" fill="white" transform="translate(17.9154 3.82471)"/>
</clipPath>
</defs>
</svg>
